<svg width="161" height="164" viewBox="0 0 161 164" fill="none" xmlns="http://www.w3.org/2000/svg">
<g clip-path="url(#clip0)">
<path d="M80.5 60.2037L10.0645 71.748V97.9256C10.0645 120.699 28.1885 139.161 50.5457 139.161H110.454C132.812 139.161 150.936 120.699 150.936 97.9256V71.748L80.5 60.2037Z" fill="url(#paint0_linear)"/>
<path d="M10.0645 71.748C10.0645 52.5832 17.3909 34.5661 30.6946 21.0145C43.9983 7.46298 61.6858 0 80.5 0C99.3143 0 117.002 7.46331 130.305 21.0145C143.609 34.5658 150.936 52.5832 150.936 71.748H10.0645Z" fill="url(#paint1_linear)"/>
<path d="M22.2116 89.9811C30.284 89.9811 36.8279 83.3152 36.8279 75.0924C36.8279 66.8696 30.284 60.2037 22.2116 60.2037C14.1392 60.2037 7.59521 66.8696 7.59521 75.0924C7.59521 83.3152 14.1392 89.9811 22.2116 89.9811Z" fill="url(#paint2_linear)"/>
<path d="M138.788 89.9811C146.861 89.9811 153.405 83.3152 153.405 75.0924C153.405 66.8696 146.861 60.2037 138.788 60.2037C130.716 60.2037 124.172 66.8696 124.172 75.0924C124.172 83.3152 130.716 89.9811 138.788 89.9811Z" fill="url(#paint3_linear)"/>
<path d="M104.896 164H56.1041L39.0391 147.373C43.6548 131.163 53.921 124.605 53.921 124.605H107.08C107.08 124.605 117.345 131.163 121.961 147.373L104.896 164Z" fill="url(#paint4_linear)"/>
<path d="M80.5002 147.234C90.2469 147.234 98.1483 140.39 98.1483 131.948C98.1483 123.505 90.2469 116.661 80.5002 116.661C70.7534 116.661 62.8521 123.505 62.8521 131.948C62.8521 140.39 70.7534 147.234 80.5002 147.234Z" fill="url(#paint5_linear)"/>
<path d="M66.5378 122.604L64.4644 121.339L53.9211 124.606C53.9211 124.606 50.5058 126.793 46.73 131.748C52.3319 135.033 58.4346 137.526 64.8899 139.079L66.5378 122.604Z" fill="#8D68F4"/>
<path d="M77.6031 129.355L66.5377 122.604C64.2292 125.188 62.8521 128.428 62.8521 131.948C62.8521 134.524 63.591 136.949 64.8899 139.078C67.8556 139.791 70.8953 140.307 73.9957 140.608C77.4861 140.948 80.5002 138.134 80.5002 134.562C80.5002 132.429 79.4004 130.452 77.6031 129.355Z" fill="#FFBD86"/>
<path d="M80.4998 131.123C112.692 131.123 138.788 104.54 138.788 71.7481C138.788 38.9564 112.692 12.3735 80.4998 12.3735C48.308 12.3735 22.2114 38.9564 22.2114 71.7481C22.2114 104.54 48.308 131.123 80.4998 131.123Z" fill="url(#paint6_linear)"/>
<path d="M97.2644 118.438C96.536 116.793 97.2551 114.858 98.8695 114.116C100.893 113.187 102.893 112.091 104.813 110.859C106.312 109.899 108.292 110.357 109.236 111.884C110.179 113.411 109.729 115.428 108.23 116.389C106.06 117.78 103.798 119.02 101.506 120.072C99.882 120.819 97.9885 120.072 97.2644 118.438Z" fill="#FDDACC"/>
<path d="M112.563 109.108C111.324 107.819 111.346 105.751 112.612 104.488C113.396 103.706 114.165 102.882 114.896 102.039C116.069 100.686 118.096 100.56 119.423 101.754C120.751 102.949 120.876 105.014 119.703 106.365C118.869 107.326 117.993 108.265 117.098 109.158C115.834 110.419 113.803 110.398 112.563 109.108Z" fill="#FDDACC"/>
<path d="M113.894 37.4096C105.643 28.1325 93.7286 22.2961 80.5 22.2961C67.2714 22.2961 55.3574 28.1325 47.106 37.4096C41.0492 44.2195 45.8379 55.1265 54.8587 55.1265H106.141C115.162 55.1265 119.951 44.2195 113.894 37.4096Z" fill="url(#paint7_linear)"/>
<path d="M40.9774 92.7907C44.6871 92.7907 47.6945 90.3289 47.6945 87.2921C47.6945 84.2553 44.6871 81.7935 40.9774 81.7935C37.2676 81.7935 34.2603 84.2553 34.2603 87.2921C34.2603 90.3289 37.2676 92.7907 40.9774 92.7907Z" fill="#FB99AC"/>
<path d="M120.023 92.7907C123.733 92.7907 126.74 90.3289 126.74 87.2921C126.74 84.2553 123.733 81.7935 120.023 81.7935C116.313 81.7935 113.306 84.2553 113.306 87.2921C113.306 90.3289 116.313 92.7907 120.023 92.7907Z" fill="#FB99AC"/>
<path d="M52.4932 87.2921C59.8493 87.2921 65.8126 81.2177 65.8126 73.7245C65.8126 66.2314 59.8493 60.157 52.4932 60.157C45.1371 60.157 39.1738 66.2314 39.1738 73.7245C39.1738 81.2177 45.1371 87.2921 52.4932 87.2921Z" fill="white"/>
<path d="M108.507 87.2921C115.863 87.2921 121.826 81.2177 121.826 73.7245C121.826 66.2314 115.863 60.157 108.507 60.157C101.151 60.157 95.1875 66.2314 95.1875 73.7245C95.1875 81.2177 101.151 87.2921 108.507 87.2921Z" fill="white"/>
<path d="M52.4931 81.8109C56.8773 81.8109 60.4315 78.1905 60.4315 73.7246C60.4315 69.2586 56.8773 65.6382 52.4931 65.6382C48.1088 65.6382 44.5547 69.2586 44.5547 73.7246C44.5547 78.1905 48.1088 81.8109 52.4931 81.8109Z" fill="#383842"/>
<path d="M108.507 81.8109C112.891 81.8109 116.445 78.1905 116.445 73.7246C116.445 69.2586 112.891 65.6382 108.507 65.6382C104.122 65.6382 100.568 69.2586 100.568 73.7246C100.568 78.1905 104.122 81.8109 108.507 81.8109Z" fill="#383842"/>
<path d="M80.5003 87.0622C78.296 87.0622 76.0924 86.2131 74.2941 84.5149C73.6447 83.9017 73.6062 82.8681 74.2085 82.2065C74.8108 81.545 75.8256 81.5061 76.4747 82.1193C78.8451 84.3578 82.1556 84.3581 84.5263 82.1193C85.1754 81.5064 86.1902 81.545 86.7925 82.2065C87.3945 82.8681 87.3563 83.9014 86.7065 84.5149C84.9089 86.2128 82.7043 87.0622 80.5003 87.0622Z" fill="#383842"/>
<path d="M90.1489 35.8549L82.1835 28.6889C81.2217 27.8235 79.7779 27.8235 78.816 28.6889L70.8507 35.8549C69.0948 37.4348 70.1916 40.3878 72.5345 40.3878H75.7926V46.9181C75.7926 48.5682 77.106 49.906 78.7259 49.906H82.2733C83.8933 49.906 85.2066 48.5682 85.2066 46.9181V40.3878H88.4648C90.8079 40.3881 91.9051 37.4348 90.1489 35.8549Z" fill="white"/>
<path d="M56.1041 147.373V164H36.8296C36.8296 157.596 37.6962 152.078 39.039 147.373H56.1041Z" fill="url(#paint8_linear)"/>
<path d="M124.17 164H104.896V147.373H121.961C123.304 152.078 124.17 157.596 124.17 164Z" fill="url(#paint9_linear)"/>
</g>
<defs>
<linearGradient id="paint0_linear" x1="80.5" y1="60.2037" x2="80.5" y2="139.161" gradientUnits="userSpaceOnUse">
<stop stop-color="#4F4C5F"/>
<stop offset="0.9783" stop-color="#6A647F"/>
</linearGradient>
<linearGradient id="paint1_linear" x1="80.5" y1="71.748" x2="80.5" y2="0" gradientUnits="userSpaceOnUse">
<stop stop-color="#4F4C5F"/>
<stop offset="0.9783" stop-color="#6A647F"/>
</linearGradient>
<linearGradient id="paint2_linear" x1="7.59521" y1="75.0924" x2="36.8279" y2="75.0924" gradientUnits="userSpaceOnUse">
<stop stop-color="#F9B897"/>
<stop offset="1" stop-color="#F9CDB7"/>
</linearGradient>
<linearGradient id="paint3_linear" x1="124.172" y1="75.0924" x2="153.405" y2="75.0924" gradientUnits="userSpaceOnUse">
<stop stop-color="#F9B897"/>
<stop offset="1" stop-color="#F9CDB7"/>
</linearGradient>
<linearGradient id="paint4_linear" x1="80.5001" y1="124.606" x2="80.5001" y2="164" gradientUnits="userSpaceOnUse">
<stop offset="0.0212" stop-color="#8D68F4"/>
<stop offset="1" stop-color="#8D68F4" stop-opacity="0.94"/>
</linearGradient>
<linearGradient id="paint5_linear" x1="80.5002" y1="116.661" x2="80.5002" y2="147.234" gradientUnits="userSpaceOnUse">
<stop stop-color="#F9B897"/>
<stop offset="1" stop-color="#F9CDB7"/>
</linearGradient>
<linearGradient id="paint6_linear" x1="22.2114" y1="71.7481" x2="138.788" y2="71.7481" gradientUnits="userSpaceOnUse">
<stop stop-color="#F9B897"/>
<stop offset="1" stop-color="#F9CDB7"/>
</linearGradient>
<linearGradient id="paint7_linear" x1="80.5" y1="55.1265" x2="80.5" y2="22.2961" gradientUnits="userSpaceOnUse">
<stop offset="0.0206" stop-color="#8D68F4"/>
<stop offset="0.380208" stop-color="#8D68F4"/>
</linearGradient>
<linearGradient id="paint8_linear" x1="36.8296" y1="155.686" x2="56.1041" y2="155.686" gradientUnits="userSpaceOnUse">
<stop stop-color="#F9B897"/>
<stop offset="1" stop-color="#F9CDB7"/>
</linearGradient>
<linearGradient id="paint9_linear" x1="104.896" y1="155.686" x2="124.17" y2="155.686" gradientUnits="userSpaceOnUse">
<stop stop-color="#F9B897"/>
<stop offset="1" stop-color="#F9CDB7"/>
</linearGradient>
<clipPath id="clip0">
<rect width="161" height="164" fill="white"/>
</clipPath>
</defs>
</svg>
