<svg width="161" height="164" viewBox="0 0 161 164" fill="none" xmlns="http://www.w3.org/2000/svg">
<g clip-path="url(#clip0)">
<path d="M72.7115 150.531H5.29199C5.29199 114.43 27.7653 104.69 27.7653 104.69H65.8158C65.8158 104.69 74.0079 108.241 80.5002 118.998L72.7115 150.531Z" fill="url(#paint0_linear)"/>
<path d="M43.0836 107.407L35.8258 104.688H27.7655C27.7655 104.688 23.6142 106.491 18.8804 111.407C25.4095 115.183 32.7408 117.679 40.5448 118.554C43.8819 118.929 46.7901 116.238 46.7901 112.818C46.7901 110.402 45.3104 108.241 43.0836 107.407Z" fill="#59C2E7"/>
<path d="M133.235 104.69H95.1848L94.868 110.133L86.301 111.407C84.3841 113.398 82.3722 115.897 80.5005 118.998L88.2894 150.531H155.708C155.708 114.43 133.235 104.69 133.235 104.69Z" fill="url(#paint1_linear)"/>
<path d="M80.5 94.1853C71.9904 103.194 60.0344 108.796 46.792 108.796C20.9486 108.797 0 87.4577 0 61.1328C0 34.8078 20.9486 13.4689 46.792 13.4689C60.0344 13.4689 71.9904 19.0713 80.5 28.0799V94.1853Z" fill="url(#paint2_linear)"/>
<path d="M9.92153 76.0355C12.353 76.0355 14.324 74.4221 14.324 72.4318C14.324 70.4415 12.353 68.828 9.92153 68.828C7.4901 68.828 5.51904 70.4415 5.51904 72.4318C5.51904 74.4221 7.4901 76.0355 9.92153 76.0355Z" fill="#FB99AC"/>
<path d="M61.7301 76.0355C64.1615 76.0355 66.1326 74.4221 66.1326 72.4318C66.1326 70.4415 64.1615 68.828 61.7301 68.828C59.2987 68.828 57.3276 70.4415 57.3276 72.4318C57.3276 74.4221 59.2987 76.0355 61.7301 76.0355Z" fill="#FB99AC"/>
<path d="M17.4692 72.4318C22.2906 72.4318 26.1991 68.4504 26.1991 63.5392C26.1991 58.628 22.2906 54.6466 17.4692 54.6466C12.6478 54.6466 8.73926 58.628 8.73926 63.5392C8.73926 68.4504 12.6478 72.4318 17.4692 72.4318Z" fill="white"/>
<path d="M54.1821 72.4318C59.0035 72.4318 62.912 68.4504 62.912 63.5392C62.912 58.628 59.0035 54.6466 54.1821 54.6466C49.3607 54.6466 45.4521 58.628 45.4521 63.5392C45.4521 68.4504 49.3607 72.4318 54.1821 72.4318Z" fill="white"/>
<path d="M17.4691 68.8391C20.3426 68.8391 22.6721 66.4663 22.6721 63.5392C22.6721 60.6121 20.3426 58.2393 17.4691 58.2393C14.5956 58.2393 12.2661 60.6121 12.2661 63.5392C12.2661 66.4663 14.5956 68.8391 17.4691 68.8391Z" fill="#383842"/>
<path d="M54.182 68.8391C57.0555 68.8391 59.385 66.4663 59.385 63.5392C59.385 60.6121 57.0555 58.2393 54.182 58.2393C51.3085 58.2393 48.979 60.6121 48.979 63.5392C48.979 66.4663 51.3085 68.8391 54.182 68.8391Z" fill="#383842"/>
<path d="M35.8257 72.8477C34.2478 72.8477 32.6696 72.24 31.3825 71.0238C30.7331 70.4106 30.6946 69.3769 31.2969 68.7157C31.8992 68.0541 32.9136 68.0153 33.5631 68.6285C34.9165 69.9062 36.7353 69.9068 38.089 68.6285C38.7382 68.0153 39.7529 68.0538 40.3552 68.7157C40.9572 69.3769 40.919 70.4106 40.2696 71.0238C38.9819 72.24 37.404 72.8477 35.8257 72.8477Z" fill="#383842"/>
<path d="M110.503 107.407L103.245 104.688H95.1854C95.1854 104.688 91.0341 106.491 86.3003 111.407C92.8295 115.183 100.161 117.679 107.965 118.554C111.302 118.929 114.21 116.238 114.21 112.818C114.209 110.402 112.73 108.241 110.503 107.407Z" fill="#F3385D"/>
<path d="M80.5 28.0809C89.0096 19.0723 100.966 13.4698 114.208 13.4698C140.051 13.4698 161 34.8088 161 61.1337C161 87.4587 140.051 108.798 114.208 108.798C100.966 108.798 89.0096 103.195 80.5 94.1866V28.0809Z" fill="url(#paint3_linear)"/>
<path d="M143.522 44.3557C142.656 42.7696 141.641 41.2335 140.508 39.7895C139.367 38.3364 139.598 36.2165 141.025 35.0544C142.451 33.8921 144.533 34.1283 145.673 35.5814C147.036 37.3168 148.257 39.1659 149.302 41.078C150.19 42.7036 149.617 44.7553 148.021 45.6602C146.419 46.5691 144.407 45.9748 143.522 44.3557Z" fill="#FDB0BF"/>
<path d="M131.728 31.9147C129.125 30.2874 126.331 29.0313 123.425 28.1819C121.669 27.6686 120.654 25.8026 121.158 24.0142C121.662 22.2259 123.494 21.1926 125.249 21.7052C128.731 22.7228 132.075 24.2259 135.188 26.1721C136.744 27.1453 137.232 29.2198 136.277 30.8055C135.323 32.3884 133.287 32.8895 131.728 31.9147Z" fill="#FDB0BF"/>
<path d="M80.4999 94.1857C72.065 85.2673 67.4194 73.5289 67.4194 61.1328C67.4194 48.7368 72.065 36.9984 80.4999 28.08C88.9347 36.9984 93.5803 48.7368 93.5803 61.1328C93.5803 73.5289 88.9347 85.2673 80.4999 94.1857Z" fill="url(#paint4_radial)"/>
<path d="M151.078 76.0355C153.51 76.0355 155.481 74.4221 155.481 72.4318C155.481 70.4415 153.51 68.828 151.078 68.828C148.647 68.828 146.676 70.4415 146.676 72.4318C146.676 74.4221 148.647 76.0355 151.078 76.0355Z" fill="#FB99AC"/>
<path d="M99.2702 76.0355C101.702 76.0355 103.673 74.4221 103.673 72.4318C103.673 70.4415 101.702 68.828 99.2702 68.828C96.8387 68.828 94.8677 70.4415 94.8677 72.4318C94.8677 74.4221 96.8387 76.0355 99.2702 76.0355Z" fill="#FB99AC"/>
<path d="M143.531 72.4318C148.353 72.4318 152.261 68.4504 152.261 63.5392C152.261 58.628 148.353 54.6466 143.531 54.6466C138.71 54.6466 134.801 58.628 134.801 63.5392C134.801 68.4504 138.71 72.4318 143.531 72.4318Z" fill="white"/>
<path d="M106.818 72.4318C111.639 72.4318 115.548 68.4504 115.548 63.5392C115.548 58.628 111.639 54.6466 106.818 54.6466C101.996 54.6466 98.0879 58.628 98.0879 63.5392C98.0879 68.4504 101.996 72.4318 106.818 72.4318Z" fill="white"/>
<path d="M143.531 68.8391C146.404 68.8391 148.734 66.4663 148.734 63.5392C148.734 60.6121 146.404 58.2393 143.531 58.2393C140.657 58.2393 138.328 60.6121 138.328 63.5392C138.328 66.4663 140.657 68.8391 143.531 68.8391Z" fill="#383842"/>
<path d="M106.818 68.8391C109.691 68.8391 112.021 66.4663 112.021 63.5392C112.021 60.6121 109.691 58.2393 106.818 58.2393C103.944 58.2393 101.615 60.6121 101.615 63.5392C101.615 66.4663 103.944 68.8391 106.818 68.8391Z" fill="#383842"/>
<path d="M125.174 72.8477C123.596 72.8477 122.018 72.2401 120.731 71.0238C120.081 70.4106 120.043 69.3769 120.645 68.7157C121.247 68.0541 122.262 68.0153 122.911 68.6285C124.265 69.9068 126.084 69.9062 127.437 68.6285C128.086 68.0146 129.101 68.0538 129.703 68.7157C130.305 69.3769 130.267 70.4106 129.618 71.0238C128.33 72.2401 126.752 72.8477 125.174 72.8477Z" fill="#383842"/>
<path d="M140.745 135.996C140.168 133.807 139.438 131.714 138.576 129.777C137.822 128.082 138.559 126.086 140.222 125.317C141.885 124.549 143.846 125.3 144.6 126.994C145.611 129.265 146.463 131.706 147.133 134.248C147.607 136.045 146.561 137.893 144.797 138.376C143.034 138.858 141.219 137.794 140.745 135.996Z" fill="#FDB0BF"/>
<path d="M133.109 121.283C132.211 120.301 131.275 119.42 130.327 118.663C128.889 117.516 128.636 115.399 129.762 113.934C130.888 112.47 132.967 112.212 134.405 113.359C135.625 114.332 136.817 115.453 137.95 116.692C139.194 118.054 139.12 120.185 137.783 121.453C136.45 122.718 134.357 122.648 133.109 121.283Z" fill="#FDB0BF"/>
<path d="M88.2885 150.531H72.7109C72.7109 136.227 76.2398 126.059 80.4996 118.998C84.7596 126.059 88.2885 136.227 88.2885 150.531Z" fill="url(#paint5_radial)"/>
</g>
<defs>
<linearGradient id="paint0_linear" x1="42.8961" y1="150.531" x2="42.8961" y2="104.69" gradientUnits="userSpaceOnUse">
<stop stop-color="#78C5E6"/>
<stop offset="0.9788" stop-color="#BBE3F4"/>
</linearGradient>
<linearGradient id="paint1_linear" x1="118.104" y1="150.531" x2="118.104" y2="104.69" gradientUnits="userSpaceOnUse">
<stop offset="0.0212" stop-color="#F3385D"/>
<stop offset="1" stop-color="#FD869C"/>
</linearGradient>
<linearGradient id="paint2_linear" x1="0" y1="61.1328" x2="80.5" y2="61.1328" gradientUnits="userSpaceOnUse">
<stop stop-color="#78C5E6"/>
<stop offset="0.9788" stop-color="#BBE3F4"/>
</linearGradient>
<linearGradient id="paint3_linear" x1="80.5" y1="61.1334" x2="161" y2="61.1334" gradientUnits="userSpaceOnUse">
<stop stop-color="#FD869C"/>
<stop offset="0.9788" stop-color="#F3385D"/>
</linearGradient>
<radialGradient id="paint4_radial" cx="0" cy="0" r="1" gradientUnits="userSpaceOnUse" gradientTransform="translate(80.4999 61.1328) scale(24.7385 25.1995)">
<stop offset="0.0223" stop-color="#8959C3"/>
<stop offset="1" stop-color="#A27CCF"/>
</radialGradient>
<radialGradient id="paint5_radial" cx="0" cy="0" r="1" gradientUnits="userSpaceOnUse" gradientTransform="translate(80.4999 134.764) scale(12.2524 12.4807)">
<stop offset="0.0223" stop-color="#8959C3"/>
<stop offset="1" stop-color="#A27CCF"/>
</radialGradient>
<clipPath id="clip0">
<rect width="161" height="164" fill="white"/>
</clipPath>
</defs>
</svg>
