<svg width="161" height="164" viewBox="0 0 161 164" fill="none" xmlns="http://www.w3.org/2000/svg">
<g clip-path="url(#clip0)">
<path d="M157.438 82.6668C152.849 78.9053 147.175 72.4404 144.378 62.1829L124.4 81.4865C124.4 81.4865 137.646 95.5049 155.776 90.6878C159.363 89.7345 160.326 85.0344 157.438 82.6668Z" fill="url(#paint0_linear)"/>
<path d="M144.378 62.1829L124.4 81.4865C124.4 81.4865 127.938 85.2307 133.86 88.184C135.606 86.9972 137.291 85.727 138.903 84.3696C142.92 80.9867 146.338 77.2189 149.121 73.1611C147.229 70.1137 145.55 66.4828 144.378 62.1829Z" fill="#8D68F4"/>
<path d="M3.56225 154.972C8.15107 151.21 13.8252 144.745 16.6225 134.487L36.6003 153.791C36.6003 153.791 23.3543 167.809 5.22453 162.992C1.63763 162.039 0.674191 157.339 3.56225 154.972Z" fill="url(#paint1_linear)"/>
<path d="M16.6223 134.488L36.6001 153.791C36.6001 153.791 33.0616 157.535 27.1399 160.489C25.3936 159.302 23.7086 158.032 22.097 156.674C18.08 153.291 14.6621 149.524 11.8789 145.466C13.7708 142.418 15.4498 138.787 16.6223 134.488Z" fill="#59C2E7"/>
<path d="M65.7144 163.378C95.5761 163.378 119.784 142.99 119.784 117.841C119.784 92.6921 95.5761 72.3047 65.7144 72.3047C35.8527 72.3047 11.645 92.6921 11.645 117.841C11.645 142.99 35.8527 163.378 65.7144 163.378Z" fill="url(#paint2_linear)"/>
<path d="M72.3138 84.4299L65.7144 72.3047C57.2328 72.3047 49.2084 73.9512 42.0645 76.8823C44.5231 80.0303 47.3707 82.984 50.5914 85.6962C54.482 88.9729 58.7757 91.772 63.3732 94.0608C66.8892 95.8112 71.1291 94.1624 72.6407 90.4852C73.4469 88.5224 73.3267 86.2911 72.3138 84.4299Z" fill="#59C2E7"/>
<path d="M95.2857 91.0729C125.147 91.0729 149.355 70.6856 149.355 45.5365C149.355 20.3874 125.147 0 95.2857 0C65.424 0 41.2163 20.3874 41.2163 45.5365C41.2163 70.6856 65.424 91.0729 95.2857 91.0729Z" fill="url(#paint3_linear)"/>
<path d="M122.448 22.0466C119.745 20.1136 116.757 18.4844 113.568 17.2044C111.831 16.5072 110.978 14.5079 111.662 12.7388C112.347 10.9698 114.309 10.1014 116.046 10.7976C119.731 12.2769 123.192 14.1652 126.332 16.4102C127.86 17.5026 128.229 19.65 127.157 21.2064C126.081 22.7683 123.972 23.1358 122.448 22.0466Z" fill="#FFF9DA"/>
<path d="M102.258 14.2412C100.259 13.969 98.2073 13.8139 96.1601 13.7796C94.2936 13.7482 92.8051 12.1817 92.8359 10.2803C92.8667 8.37931 94.4138 6.86672 96.2711 6.89417C98.58 6.93272 100.896 7.10815 103.153 7.41557C105.004 7.66745 106.303 9.39958 106.056 11.2846C105.806 13.1846 104.091 14.4924 102.258 14.2412Z" fill="#FFF9DA"/>
<path d="M63.794 58.556C66.7499 58.556 69.1461 56.5945 69.1461 54.1747C69.1461 51.755 66.7499 49.7935 63.794 49.7935C60.8381 49.7935 58.4419 51.755 58.4419 54.1747C58.4419 56.5945 60.8381 58.556 63.794 58.556Z" fill="#FDAECE"/>
<path d="M126.776 58.556C129.732 58.556 132.129 56.5945 132.129 54.1747C132.129 51.755 129.732 49.7935 126.776 49.7935C123.821 49.7935 121.424 51.755 121.424 54.1747C121.424 56.5945 123.821 58.556 126.776 58.556Z" fill="#FDAECE"/>
<path d="M72.9699 54.1748C78.8311 54.1748 83.5825 49.3348 83.5825 43.3645C83.5825 37.3941 78.8311 32.5542 72.9699 32.5542C67.1088 32.5542 62.3574 37.3941 62.3574 43.3645C62.3574 49.3348 67.1088 54.1748 72.9699 54.1748Z" fill="white"/>
<path d="M73.1423 47.9229C75.612 45.4071 75.612 41.3282 73.1423 38.8124C70.6725 36.2967 66.6682 36.2967 64.1985 38.8124C61.7287 41.3282 61.7287 45.4071 64.1985 47.9229C66.6682 50.4387 70.6725 50.4387 73.1423 47.9229Z" fill="#383842"/>
<path d="M117.601 54.1748C123.462 54.1748 128.213 49.3348 128.213 43.3645C128.213 37.3941 123.462 32.5542 117.601 32.5542C111.74 32.5542 106.988 37.3941 106.988 43.3645C106.988 49.3348 111.74 54.1748 117.601 54.1748Z" fill="white"/>
<path d="M119.485 44.8859C120.288 41.4236 118.184 37.9533 114.785 37.1349C111.386 36.3165 107.979 38.4598 107.176 41.9221C106.373 45.3844 108.477 48.8546 111.876 49.6731C115.275 50.4915 118.681 48.3482 119.485 44.8859Z" fill="#383842"/>
<path d="M98.0047 45.9905H92.565C91.4874 45.9905 90.5378 46.7118 90.2337 47.7651C89.2761 51.0826 88.1763 57.8932 95.2847 57.8932C102.393 57.8932 101.293 51.083 100.336 47.7651C100.032 46.7118 99.0823 45.9905 98.0047 45.9905Z" fill="#383842"/>
<path d="M34.2232 130.861C37.1791 130.861 39.5753 128.899 39.5753 126.48C39.5753 124.06 37.1791 122.098 34.2232 122.098C31.2673 122.098 28.8711 124.06 28.8711 126.48C28.8711 128.899 31.2673 130.861 34.2232 130.861Z" fill="#FDAECE"/>
<path d="M97.2056 130.861C100.162 130.861 102.558 128.899 102.558 126.48C102.558 124.06 100.162 122.098 97.2056 122.098C94.2497 122.098 91.8535 124.06 91.8535 126.48C91.8535 128.899 94.2497 130.861 97.2056 130.861Z" fill="#FDAECE"/>
<path d="M43.3987 126.48C49.2598 126.48 54.0112 121.64 54.0112 115.669C54.0112 109.699 49.2598 104.859 43.3987 104.859C37.5375 104.859 32.7861 109.699 32.7861 115.669C32.7861 121.64 37.5375 126.48 43.3987 126.48Z" fill="white"/>
<path d="M53.8241 117.192C54.6276 113.73 52.5235 110.259 49.1245 109.441C45.7256 108.623 42.3188 110.766 41.5153 114.228C40.7119 117.691 42.816 121.161 46.215 121.979C49.6139 122.798 53.0207 120.654 53.8241 117.192Z" fill="#383842"/>
<path d="M88.03 126.48C93.8911 126.48 98.6425 121.64 98.6425 115.669C98.6425 109.699 93.8911 104.859 88.03 104.859C82.1689 104.859 77.4175 109.699 77.4175 115.669C77.4175 121.64 82.1689 126.48 88.03 126.48Z" fill="white"/>
<path d="M96.7448 120.222C99.2146 117.707 99.2146 113.628 96.7448 111.112C94.2751 108.596 90.2708 108.596 87.801 111.112C85.3312 113.628 85.3312 117.707 87.801 120.222C90.2708 122.738 94.2751 122.738 96.7448 120.222Z" fill="#383842"/>
<path d="M65.7144 130.197C68.3369 130.197 70.4629 127.362 70.4629 123.864C70.4629 120.366 68.3369 117.531 65.7144 117.531C63.0918 117.531 60.9658 120.366 60.9658 123.864C60.9658 127.362 63.0918 130.197 65.7144 130.197Z" fill="#383842"/>
</g>
<defs>
<linearGradient id="paint0_linear" x1="124.4" y1="76.9389" x2="159.133" y2="76.9389" gradientUnits="userSpaceOnUse">
<stop offset="0.0223" stop-color="#8D68F4" stop-opacity="0.46"/>
<stop offset="0.9994" stop-color="#8D68F4"/>
</linearGradient>
<linearGradient id="paint1_linear" x1="19.2338" y1="164" x2="19.2338" y2="134.488" gradientUnits="userSpaceOnUse">
<stop offset="0.0212" stop-color="#BBE3F4"/>
<stop offset="1" stop-color="#78C5E6"/>
</linearGradient>
<linearGradient id="paint2_linear" x1="65.7144" y1="163.378" x2="65.7144" y2="72.3047" gradientUnits="userSpaceOnUse">
<stop stop-color="#78C5E6"/>
<stop offset="0.9788" stop-color="#BBE3F4"/>
</linearGradient>
<linearGradient id="paint3_linear" x1="95.2857" y1="91.0729" x2="95.2857" y2="0" gradientUnits="userSpaceOnUse">
<stop offset="0.0223" stop-color="#DADFFA"/>
<stop offset="0.9994" stop-color="#8D68F4"/>
</linearGradient>
<clipPath id="clip0">
<rect width="161" height="164" fill="white"/>
</clipPath>
</defs>
</svg>
