<svg width="161" height="164" viewBox="0 0 161 164" fill="none" xmlns="http://www.w3.org/2000/svg">
<g clip-path="url(#clip0)">
<path d="M61.5581 135.478V150.86C61.5581 158.117 67.3336 164 74.458 164H86.542C93.6664 164 99.4419 158.117 99.4419 150.86V135.478H61.5581Z" fill="url(#paint0_linear)"/>
<path d="M76.9878 142.188L61.5581 135.478V150.86C61.5581 151.762 61.6479 152.644 61.8179 153.495H74.7175C77.9108 153.495 80.4997 150.858 80.4997 147.605C80.5 145.246 79.118 143.114 76.9878 142.188Z" fill="#8D68F4"/>
<path d="M110.356 126.227L80.4998 119.303L50.6436 126.227C45.9027 126.227 42.0596 130.142 42.0596 134.971C42.0596 139.8 45.9027 143.715 50.6436 143.715H110.356C115.096 143.715 118.94 139.8 118.94 134.971C118.94 130.142 115.097 126.227 110.356 126.227Z" fill="url(#paint1_linear)"/>
<path d="M69.0222 126.227H50.6441C45.8366 126.227 41.952 130.253 42.0624 135.175C42.0633 135.177 42.0643 135.178 42.0652 135.179C43.7657 135.717 45.5723 136.007 47.444 136.007H69.0225C71.6735 136.007 73.823 133.817 73.823 131.117C73.8226 128.417 71.6735 126.227 69.0222 126.227Z" fill="#8D68F4"/>
<path d="M117.011 115.306C117.011 94.8587 136.55 91.8527 136.55 59.1726C136.55 26.4925 111.456 0 80.5 0C49.5444 0 24.4502 26.4925 24.4502 59.1726C24.4502 91.8527 43.9892 94.8587 43.9892 115.306H117.011Z" fill="url(#paint2_linear)"/>
<path d="M118.025 36.4794C116.835 34.2076 115.465 32.0168 113.954 29.9678C112.892 28.5287 113.176 26.4849 114.589 25.4032C116.003 24.3212 118.009 24.6117 119.07 26.0504C120.779 28.367 122.328 30.8437 123.672 33.4111C124.504 34.9999 123.914 36.9744 122.355 37.8218C120.781 38.6755 118.849 38.0548 118.025 36.4794Z" fill="#FFF9DA"/>
<path d="M106.536 22.3647C105.768 21.7453 104.971 21.1448 104.167 20.5809C102.712 19.5597 102.345 17.5296 103.347 16.0471C104.35 14.5646 106.342 14.1905 107.798 15.2117C108.719 15.8576 109.631 16.5447 110.51 17.2536C111.895 18.3715 112.129 20.4218 111.031 21.8332C109.938 23.2402 107.926 23.4856 106.536 22.3647Z" fill="#FFF9DA"/>
<path d="M70.9092 79.7795C74.9531 83.5201 77.2591 88.826 77.2591 94.3902V112.06H83.7408V94.3902C83.7408 88.826 86.0467 83.5201 90.0906 79.7795L80.4999 74.7798L70.9092 79.7795Z" fill="#8D68F4"/>
<path d="M90.0906 79.7795L80.4999 74.7798L70.9092 79.7795C73.7632 82.4195 75.7466 85.8403 76.6693 89.5803H84.3302C85.2533 85.8403 87.2366 82.4195 90.0906 79.7795Z" fill="#8D68F4"/>
<path d="M43.4427 55.7103C42.8009 53.985 42.4465 52.1157 42.4465 50.1614C42.4465 41.967 48.6245 35.2466 56.4939 34.5585C58.4275 28.1593 64.2768 23.5078 71.193 23.5078C74.6917 23.5078 77.9159 24.6999 80.4999 26.7045C83.084 24.6999 86.3081 23.5078 89.8068 23.5078C96.7231 23.5078 102.572 28.1593 104.506 34.5585C112.375 35.2462 118.553 41.967 118.553 50.1614C118.553 52.1157 118.199 53.985 117.557 55.7103C121.484 57.8789 124.156 62.1154 124.156 66.9747C124.156 74.0358 118.517 79.7791 111.585 79.7791H49.4144C42.4824 79.7791 36.8442 74.0358 36.8442 66.9747C36.8442 62.1154 39.5161 57.8789 43.4427 55.7103Z" fill="url(#paint3_linear)"/>
<path d="M102.068 56.7176C102.565 57.2236 103.356 57.2841 103.912 56.8457C106.034 55.17 108.697 54.1707 111.586 54.1707C113.746 54.1707 115.78 54.729 117.557 55.7107C117.894 54.8071 118.149 53.8633 118.317 52.8884C116.284 51.8786 114 51.3105 111.586 51.3105C111.451 51.3105 111.318 51.3157 111.183 51.319C110.788 51.1788 110.352 51.0044 109.905 50.7891C108.644 50.1805 107.036 49.1115 106.536 47.4745C106.306 46.7201 105.519 46.2987 104.778 46.5326C104.038 46.7672 103.624 47.5689 103.854 48.3232C104.356 49.9707 105.436 51.2102 106.66 52.1351C105.031 52.6973 103.523 53.5284 102.19 54.5794C101.524 55.1044 101.472 56.1112 102.068 56.7176Z" fill="#FD75BE"/>
<path d="M82.2215 39.3859C83.8452 39.3774 84.8587 39.0069 85.4902 38.5639C86.1535 38.099 86.479 37.264 86.3401 36.4561C85.6595 32.4943 83.5172 29.0454 80.5005 26.7053C81.2859 26.096 82.1301 25.5622 83.0236 25.1143C86.2955 27.9751 88.5614 31.9977 89.1983 36.5482C89.3231 37.4404 89.8366 38.2405 90.6028 38.6916C91.2528 39.0742 92.2099 39.378 93.6117 39.3862C94.3754 39.3908 95.0431 39.9824 95.0729 40.7596C95.1043 41.5757 94.4639 42.2474 93.6698 42.2474C90.5915 42.2474 88.8597 41.181 87.9174 40.2013C86.9751 41.181 85.2429 42.2474 82.165 42.2474C81.3712 42.2474 80.7311 41.5763 80.7616 40.7606C80.7904 39.983 81.4581 39.3898 82.2215 39.3859Z" fill="#FD75BE"/>
<path d="M42.6836 52.8882C42.8516 53.8631 43.1066 54.8066 43.4427 55.7105C45.2201 54.7288 47.2545 54.1705 49.4145 54.1705C52.3029 54.1705 54.9658 55.1699 57.0886 56.8455C57.6441 57.2839 58.4356 57.2238 58.9324 56.7174C59.5277 56.1111 59.4757 55.1042 58.8099 54.5792C57.5129 53.5563 56.0508 52.7399 54.4715 52.179C55.7791 51.1195 57.6489 50.2688 60.3234 50.0519C61.0966 49.9892 61.6736 49.2998 61.6117 48.5122C61.5498 47.7249 60.8782 47.1339 60.1001 47.1999C55.5302 47.5707 52.8102 49.504 51.2156 51.4194C50.6245 51.3489 50.0238 51.3103 49.4142 51.3103C47.0001 51.3103 44.7169 51.8784 42.6836 52.8882Z" fill="#FD75BE"/>
<path d="M54.2824 67.6586C55.5297 71.676 57.9617 73.3689 59.8606 74.0824C60.9517 72.4231 61.6753 70.4924 61.9042 68.4103C61.9908 67.6233 62.6746 67.0497 63.4479 67.1326C64.224 67.216 64.7833 67.9278 64.697 68.7178C64.1983 73.2813 61.7654 77.2572 58.257 79.7796H49.4146C52.7086 79.7796 55.7086 78.48 57.952 76.3604C55.8116 75.33 53.0387 73.1409 51.6044 68.5217C51.3706 67.7684 51.7805 66.9644 52.5201 66.7262C53.2596 66.4884 54.0483 66.9056 54.2824 67.6586Z" fill="#FD75BE"/>
<path d="M106.718 67.6586C105.471 71.676 103.039 73.3689 101.14 74.0824C100.049 72.4231 99.3255 70.4924 99.0965 68.4103C99.0099 67.6233 98.3261 67.0497 97.5529 67.1326C96.7768 67.216 96.2174 67.9278 96.3037 68.7178C96.8024 73.2813 99.2354 77.2572 102.744 79.7796H111.586C108.292 79.7796 105.292 78.48 103.049 76.3604C105.189 75.33 107.962 73.1409 109.396 68.5217C109.63 67.7684 109.22 66.9644 108.481 66.7262C107.741 66.4884 106.952 66.9056 106.718 67.6586Z" fill="#FD75BE"/>
<path d="M113.556 108.739H47.4434C42.7025 108.739 38.8594 112.654 38.8594 117.483C38.8594 122.312 42.7025 126.227 47.4434 126.227H113.556C118.297 126.227 122.14 122.312 122.14 117.483C122.14 112.654 118.297 108.739 113.556 108.739Z" fill="url(#paint4_linear)"/>
</g>
<defs>
<linearGradient id="paint0_linear" x1="80.5" y1="164" x2="80.5" y2="135.478" gradientUnits="userSpaceOnUse">
<stop offset="0.0223" stop-color="#C1BFC5"/>
<stop offset="1" stop-color="#8D889D"/>
</linearGradient>
<linearGradient id="paint1_linear" x1="80.4998" y1="119.303" x2="80.4998" y2="143.715" gradientUnits="userSpaceOnUse">
<stop stop-color="#8D889D"/>
<stop offset="0.9777" stop-color="#C1BFC5"/>
</linearGradient>
<linearGradient id="paint2_linear" x1="80.5" y1="0" x2="80.5" y2="115.306" gradientUnits="userSpaceOnUse">
<stop offset="0.000558036" stop-color="#F4E46A"/>
<stop offset="0.9777" stop-color="#F7F0A9"/>
</linearGradient>
<linearGradient id="paint3_linear" x1="80.4999" y1="23.5085" x2="80.4999" y2="79.7794" gradientUnits="userSpaceOnUse">
<stop offset="0.0212" stop-color="#FFB1DB"/>
<stop offset="1" stop-color="#FD86C8"/>
</linearGradient>
<linearGradient id="paint4_linear" x1="80.4997" y1="126.227" x2="80.4997" y2="108.739" gradientUnits="userSpaceOnUse">
<stop offset="0.0223" stop-color="#C1BFC5"/>
<stop offset="1" stop-color="#8D889D"/>
</linearGradient>
<clipPath id="clip0">
<rect width="161" height="164" fill="white"/>
</clipPath>
</defs>
</svg>
