<svg width="161" height="164" viewBox="0 0 161 164" fill="none" xmlns="http://www.w3.org/2000/svg">
<g clip-path="url(#clip0)">
<path d="M87.5583 9.56348H15.8001C7.07406 9.56348 0 16.7693 0 25.658V122.798C0 131.687 7.07406 138.893 15.8001 138.893H19.7546L51.6794 133.002L83.6042 138.893H87.5587C96.2847 138.893 103.359 131.687 103.359 122.798V25.658C103.358 16.7693 96.2844 9.56348 87.5583 9.56348Z" fill="url(#paint0_linear)"/>
<path d="M84.6943 154.436C84.6943 125.148 101.598 117.859 101.598 117.859H135.42C135.42 117.859 152.323 125.148 152.323 154.436H84.6943Z" fill="url(#paint1_linear)"/>
<path d="M98.063 154.436V140.354C98.063 138.996 99.1438 137.895 100.477 137.895C101.811 137.895 102.892 138.996 102.892 140.354V154.436H98.063Z" fill="#8959C3"/>
<path d="M138.954 154.436V140.354C138.954 138.996 137.873 137.895 136.539 137.895C135.206 137.895 134.125 138.996 134.125 140.354V154.436H138.954Z" fill="#8959C3"/>
<path d="M117.25 119.603L113.864 114.705L101.598 117.859C101.598 117.859 97.6118 119.585 93.5117 124.708C98.7048 127.612 104.433 129.642 110.504 130.6C114.706 131.263 118.509 127.985 118.509 123.653C118.509 122.204 118.069 120.789 117.25 119.603Z" fill="#8959C3"/>
<path d="M19.7544 138.893H83.604C79.1942 122.435 68.5903 117.859 68.5903 117.859H34.7684C34.7684 117.859 24.1643 122.435 19.7544 138.893Z" fill="url(#paint2_linear)"/>
<path d="M50.42 119.603L47.0345 114.705L34.768 117.859C34.768 117.859 30.7822 119.585 26.6821 124.708C31.8752 127.612 37.6032 129.642 43.6744 130.6C47.8767 131.263 51.6791 127.985 51.6791 123.653C51.6795 122.204 51.2398 120.789 50.42 119.603Z" fill="#8959C3"/>
<path d="M51.679 121.426C28.138 121.426 9.1875 101.972 9.1875 78.139C9.1875 54.2348 28.2121 34.8557 51.679 34.8557C75.1459 34.8557 94.1705 54.2348 94.1705 78.139C94.1705 101.962 75.2244 121.426 51.679 121.426Z" fill="url(#paint3_linear)"/>
<path d="M22.7773 94.6386C25.4902 94.6386 27.6894 92.8383 27.6894 90.6176C27.6894 88.3969 25.4902 86.5967 22.7773 86.5967C20.0645 86.5967 17.8652 88.3969 17.8652 90.6176C17.8652 92.8383 20.0645 94.6386 22.7773 94.6386Z" fill="#FB99AC"/>
<path d="M31.1982 90.6178C36.5775 90.6178 40.9384 86.1757 40.9384 80.6961C40.9384 75.2165 36.5775 70.7744 31.1982 70.7744C25.8188 70.7744 21.458 75.2165 21.458 80.6961C21.458 86.1757 25.8188 90.6178 31.1982 90.6178Z" fill="white"/>
<path d="M72.1606 90.6178C77.5399 90.6178 81.9008 86.1757 81.9008 80.6961C81.9008 75.2165 77.5399 70.7744 72.1606 70.7744C66.7812 70.7744 62.4204 75.2165 62.4204 80.6961C62.4204 86.1757 66.7812 90.6178 72.1606 90.6178Z" fill="white"/>
<path d="M31.1984 86.6097C34.4045 86.6097 37.0037 83.9621 37.0037 80.6962C37.0037 77.4303 34.4045 74.7827 31.1984 74.7827C27.9922 74.7827 25.3931 77.4303 25.3931 80.6962C25.3931 83.9621 27.9922 86.6097 31.1984 86.6097Z" fill="#383842"/>
<path d="M72.1608 86.6097C75.3669 86.6097 77.9661 83.9621 77.9661 80.6962C77.9661 77.4303 75.3669 74.7827 72.1608 74.7827C68.9546 74.7827 66.3555 77.4303 66.3555 80.6962C66.3555 83.9621 68.9546 86.6097 72.1608 86.6097Z" fill="#383842"/>
<path d="M51.6796 90.8918C49.9638 90.8918 48.248 90.2309 46.8483 88.9088C46.1989 88.2956 46.1604 87.2619 46.7627 86.6003C47.365 85.9388 48.3798 85.8996 49.0289 86.5131C50.5901 87.9875 52.7704 87.9872 54.331 86.5131C54.9801 85.9002 55.9949 85.9388 56.5972 86.6003C57.1992 87.2619 57.161 88.2952 56.5115 88.9088C55.1116 90.2309 53.3958 90.8918 51.6796 90.8918Z" fill="#383842"/>
<path d="M118.509 121.426C94.9676 121.426 76.0171 101.972 76.0171 78.139C76.0171 54.2348 95.0417 34.8557 118.509 34.8557C141.975 34.8557 161 54.2348 161 78.139C161 101.962 142.054 121.426 118.509 121.426Z" fill="url(#paint4_linear)"/>
<path d="M143.923 60.3597C142.954 60.3597 141.997 59.9148 141.366 59.0683C140.603 58.0451 139.768 57.0778 138.883 56.1934C137.619 54.9298 137.599 52.8615 138.84 51.5733C140.08 50.2858 142.111 50.2662 143.375 51.5295C144.481 52.6347 145.524 53.8419 146.475 55.1166C147.546 56.5534 147.271 58.6028 145.86 59.6943C145.28 60.1431 144.599 60.3597 143.923 60.3597Z" fill="#D3C1E7"/>
<path d="M132.277 51.0061C131.827 51.0061 131.369 50.9088 130.933 50.7033C128.917 49.7532 126.786 49.0345 124.598 48.567C122.865 48.1965 121.754 46.4647 122.118 44.699C122.481 42.9332 124.182 41.8035 125.915 42.1723C128.577 42.7411 131.171 43.616 133.626 44.7731C135.234 45.5307 135.934 47.4726 135.19 49.11C134.648 50.3037 133.489 51.0061 132.277 51.0061Z" fill="#D3C1E7"/>
<path d="M93.7369 28.925C91.9656 28.925 90.5297 27.4624 90.5297 25.6581C90.5297 23.9893 89.1968 22.6313 87.5582 22.6313C85.7869 22.6313 84.3511 21.1687 84.3511 19.3643C84.3511 17.56 85.7869 16.0974 87.5582 16.0974C92.7337 16.0974 96.944 20.3862 96.944 25.6581C96.944 27.4624 95.5082 28.925 93.7369 28.925Z" fill="#BDE5F6"/>
<path d="M76.412 22.6313H72.4621C70.6907 22.6313 69.2549 21.1687 69.2549 19.3643C69.2549 17.56 70.6907 16.0974 72.4621 16.0974H76.412C78.1833 16.0974 79.6192 17.56 79.6192 19.3643C79.6192 21.1687 78.1833 22.6313 76.412 22.6313Z" fill="#BDE5F6"/>
</g>
<defs>
<linearGradient id="paint0_linear" x1="51.6794" y1="9.56348" x2="51.6794" y2="138.893" gradientUnits="userSpaceOnUse">
<stop offset="0.000558036" stop-color="#5BD4FB"/>
<stop offset="0.9777" stop-color="#A2E4FD"/>
</linearGradient>
<linearGradient id="paint1_linear" x1="118.509" y1="117.859" x2="118.509" y2="154.436" gradientUnits="userSpaceOnUse">
<stop offset="0.0223" stop-color="#8959C3"/>
<stop offset="1" stop-color="#8D68F4"/>
</linearGradient>
<linearGradient id="paint2_linear" x1="51.6795" y1="117.859" x2="51.6795" y2="138.893" gradientUnits="userSpaceOnUse">
<stop offset="0.0223" stop-color="#8959C3"/>
<stop offset="1" stop-color="#8D68F4"/>
</linearGradient>
<linearGradient id="paint3_linear" x1="9.18782" y1="78.1406" x2="94.1705" y2="78.1406" gradientUnits="userSpaceOnUse">
<stop offset="0.0223" stop-color="#8959C3"/>
<stop offset="1" stop-color="#8D68F4"/>
</linearGradient>
<linearGradient id="paint4_linear" x1="76.0174" y1="78.1406" x2="161" y2="78.1406" gradientUnits="userSpaceOnUse">
<stop offset="0.0223" stop-color="#8959C3"/>
<stop offset="0.0520833" stop-color="#8A5AC3"/>
<stop offset="1" stop-color="#8D68F4"/>
</linearGradient>
<clipPath id="clip0">
<rect width="161" height="164" fill="white"/>
</clipPath>
</defs>
</svg>
