<svg width="161" height="164" viewBox="0 0 161 164" fill="none" xmlns="http://www.w3.org/2000/svg">
<g clip-path="url(#clip0)">
<path d="M0 82.0003V141.877C0 154.095 9.72382 164 21.7186 164H80.5L87.7732 122.706L80.5 82.0003L40.25 73.355L0 82.0003Z" fill="url(#paint0_radial)"/>
<path d="M139.281 0H80.5001L76.564 41L80.5001 82L120.75 89.3996L161 82V22.1233C161 9.90501 151.276 0 139.281 0V0Z" fill="url(#paint1_linear)"/>
<path d="M21.7186 0C9.72382 0 0 9.90501 0 22.1233V82H80.5V0H21.7186Z" fill="url(#paint2_linear)"/>
<path d="M12.0632 52.6365C14.7088 52.6365 16.8534 50.8809 16.8534 48.7152C16.8534 46.5496 14.7088 44.7939 12.0632 44.7939C9.41761 44.7939 7.27295 46.5496 7.27295 48.7152C7.27295 50.8809 9.41761 52.6365 12.0632 52.6365Z" fill="#FB99AC"/>
<path d="M68.4362 52.6365C71.0818 52.6365 73.2265 50.8809 73.2265 48.7152C73.2265 46.5496 71.0818 44.7939 68.4362 44.7939C65.7907 44.7939 63.646 46.5496 63.646 48.7152C63.646 50.8809 65.7907 52.6365 68.4362 52.6365Z" fill="#FB99AC"/>
<path d="M20.2759 48.7153C25.522 48.7153 29.7749 44.3832 29.7749 39.0393C29.7749 33.6954 25.522 29.3633 20.2759 29.3633C15.0297 29.3633 10.7769 33.6954 10.7769 39.0393C10.7769 44.3832 15.0297 48.7153 20.2759 48.7153Z" fill="white"/>
<path d="M60.2236 48.7153C65.4698 48.7153 69.7226 44.3832 69.7226 39.0393C69.7226 33.6954 65.4698 29.3633 60.2236 29.3633C54.9775 29.3633 50.7246 33.6954 50.7246 39.0393C50.7246 44.3832 54.9775 48.7153 60.2236 48.7153Z" fill="white"/>
<path d="M20.2756 44.806C23.4022 44.806 25.9369 42.2242 25.9369 39.0393C25.9369 35.8543 23.4022 33.2725 20.2756 33.2725C17.1489 33.2725 14.6143 35.8543 14.6143 39.0393C14.6143 42.2242 17.1489 44.806 20.2756 44.806Z" fill="#383842"/>
<path d="M60.2233 44.806C63.35 44.806 65.8846 42.2242 65.8846 39.0393C65.8846 35.8543 63.35 33.2725 60.2233 33.2725C57.0967 33.2725 54.562 35.8543 54.562 39.0393C54.562 42.2242 57.0967 44.806 60.2233 44.806Z" fill="#383842"/>
<path d="M40.2496 49.0232C38.5668 49.0232 36.8837 48.375 35.511 47.0783C34.8615 46.4648 34.823 45.4315 35.425 44.7699C36.0277 44.1084 37.0418 44.0695 37.6912 44.6824C39.1976 46.1051 41.3012 46.1051 42.8076 44.6824C43.4564 44.0698 44.4715 44.1084 45.0738 44.7699C45.6758 45.4315 45.6376 46.4648 44.9879 47.0783C43.6155 48.3747 41.9324 49.0232 40.2496 49.0232Z" fill="#383842"/>
<path d="M80.5 82V164H139.281C151.276 164 161 154.095 161 141.877V82H80.5Z" fill="url(#paint3_linear)"/>
<path d="M139.281 157.466C137.51 157.466 136.074 156.003 136.074 154.199C136.074 152.395 137.51 150.933 139.281 150.933C140.238 150.933 141.196 150.77 142.126 150.45C143.804 149.872 145.624 150.791 146.19 152.5C146.757 154.21 145.856 156.064 144.178 156.641C142.585 157.189 140.938 157.466 139.281 157.466Z" fill="#FDB0BF"/>
<path d="M149.519 149.204C147.857 148.578 147.01 146.698 147.625 145.006C147.882 144.297 148.051 143.552 148.127 142.79C148.305 140.994 149.876 139.69 151.64 139.868C153.402 140.05 154.687 141.652 154.508 143.448C154.378 144.76 154.086 146.047 153.64 147.274C153.028 148.958 151.187 149.833 149.519 149.204Z" fill="#FDB0BF"/>
<path d="M92.5632 52.637C95.2088 52.637 97.3534 50.8814 97.3534 48.7157C97.3534 46.5501 95.2088 44.7944 92.5632 44.7944C89.9176 44.7944 87.7729 46.5501 87.7729 48.7157C87.7729 50.8814 89.9176 52.637 92.5632 52.637Z" fill="#FB99AC"/>
<path d="M148.936 52.637C151.582 52.637 153.726 50.8814 153.726 48.7157C153.726 46.5501 151.582 44.7944 148.936 44.7944C146.291 44.7944 144.146 46.5501 144.146 48.7157C144.146 50.8814 146.291 52.637 148.936 52.637Z" fill="#FB99AC"/>
<path d="M100.776 48.7154C106.015 48.7154 110.263 44.3888 110.263 39.0518C110.263 33.7147 106.015 29.3882 100.776 29.3882C95.5365 29.3882 91.2891 33.7147 91.2891 39.0518C91.2891 44.3888 95.5365 48.7154 100.776 48.7154Z" fill="#D6D5D8"/>
<path d="M91.2891 39.5249C91.5373 44.6432 95.6896 48.7154 100.776 48.7154C105.862 48.7154 110.014 44.6432 110.263 39.5249H91.2891Z" fill="white"/>
<path d="M95.1362 39.5249C95.3784 42.4825 97.81 44.8062 100.776 44.8062C103.742 44.8062 106.174 42.4825 106.416 39.5249H95.1362Z" fill="#383842"/>
<path d="M140.724 48.7154C145.963 48.7154 150.21 44.3888 150.21 39.0518C150.21 33.7147 145.963 29.3882 140.724 29.3882C135.484 29.3882 131.237 33.7147 131.237 39.0518C131.237 44.3888 135.484 48.7154 140.724 48.7154Z" fill="#D6D5D8"/>
<path d="M131.236 39.5249C131.485 44.6432 135.637 48.7154 140.723 48.7154C145.809 48.7154 149.962 44.6432 150.21 39.5249H131.236Z" fill="white"/>
<path d="M135.083 39.5249C135.326 42.4825 137.757 44.8062 140.723 44.8062C143.689 44.8062 146.121 42.4825 146.363 39.5249H135.083Z" fill="#383842"/>
<path d="M124.397 49.8412C123.812 49.8412 123.226 49.6249 122.762 49.1878C121.558 48.0509 119.94 48.0509 118.736 49.1878C117.761 50.1075 116.24 50.049 115.337 49.0572C114.434 48.0647 114.491 46.5145 115.465 45.5942C118.527 42.703 122.971 42.703 126.033 45.5942C127.007 46.5142 127.065 48.0647 126.161 49.0572C125.688 49.5776 125.044 49.8412 124.397 49.8412Z" fill="#383842"/>
<path d="M92.5632 134.637C95.2088 134.637 97.3534 132.881 97.3534 130.715C97.3534 128.55 95.2088 126.794 92.5632 126.794C89.9176 126.794 87.7729 128.55 87.7729 130.715C87.7729 132.881 89.9176 134.637 92.5632 134.637Z" fill="#FB99AC"/>
<path d="M148.936 134.637C151.582 134.637 153.726 132.881 153.726 130.715C153.726 128.55 151.582 126.794 148.936 126.794C146.291 126.794 144.146 128.55 144.146 130.715C144.146 132.881 146.291 134.637 148.936 134.637Z" fill="#FB99AC"/>
<path d="M100.776 130.715C106.022 130.715 110.275 126.383 110.275 121.039C110.275 115.695 106.022 111.363 100.776 111.363C95.5297 111.363 91.2769 115.695 91.2769 121.039C91.2769 126.383 95.5297 130.715 100.776 130.715Z" fill="white"/>
<path d="M140.724 130.715C145.97 130.715 150.223 126.383 150.223 121.039C150.223 115.695 145.97 111.363 140.724 111.363C135.477 111.363 131.225 115.695 131.225 121.039C131.225 126.383 135.477 130.715 140.724 130.715Z" fill="white"/>
<path d="M103.914 124.447C103.065 124.447 102.241 123.988 101.804 123.177C101.502 122.618 100.984 122.557 100.776 122.557C100.568 122.557 100.05 122.618 99.7485 123.176C99.1087 124.362 97.6456 124.795 96.482 124.143C95.3178 123.491 94.8929 122.002 95.5327 120.816C96.5837 118.867 98.593 117.657 100.776 117.657C102.959 117.657 104.968 118.867 106.02 120.816C106.659 122.001 106.235 123.491 105.071 124.143C104.703 124.349 104.306 124.447 103.914 124.447Z" fill="#383842"/>
<path d="M137.586 124.447C137.194 124.447 136.797 124.349 136.429 124.143C135.265 123.491 134.84 122.001 135.48 120.816C136.531 118.867 138.541 117.657 140.723 117.657H140.724C142.907 117.657 144.916 118.867 145.967 120.816C146.607 122.002 146.182 123.491 145.018 124.143C143.854 124.795 142.392 124.363 141.751 123.176C141.45 122.618 140.932 122.557 140.724 122.557C140.515 122.557 139.997 122.618 139.696 123.177C139.258 123.988 138.435 124.447 137.586 124.447Z" fill="#383842"/>
<path d="M124.493 134.043H117.007C114.92 134.043 113.228 132.319 113.228 130.193C113.228 128.067 114.92 126.343 117.007 126.343H124.493C126.58 126.343 128.272 128.067 128.272 130.193C128.272 132.319 126.58 134.043 124.493 134.043Z" fill="#383842"/>
<path d="M12.0632 134.637C14.7088 134.637 16.8534 132.881 16.8534 130.715C16.8534 128.55 14.7088 126.794 12.0632 126.794C9.41761 126.794 7.27295 128.55 7.27295 130.715C7.27295 132.881 9.41761 134.637 12.0632 134.637Z" fill="#FB99AC"/>
<path d="M68.4362 134.637C71.0818 134.637 73.2265 132.881 73.2265 130.715C73.2265 128.55 71.0818 126.794 68.4362 126.794C65.7907 126.794 63.646 128.55 63.646 130.715C63.646 132.881 65.7907 134.637 68.4362 134.637Z" fill="#FB99AC"/>
<path d="M20.2759 130.715C25.522 130.715 29.7749 126.383 29.7749 121.039C29.7749 115.695 25.522 111.363 20.2759 111.363C15.0297 111.363 10.7769 115.695 10.7769 121.039C10.7769 126.383 15.0297 130.715 20.2759 130.715Z" fill="white"/>
<path d="M29.5978 122.402C30.3169 119.303 28.4337 116.197 25.3914 115.464C22.3492 114.732 19.3 116.65 18.5809 119.749C17.8618 122.848 19.745 125.954 22.7872 126.686C25.8295 127.419 28.8787 125.5 29.5978 122.402Z" fill="#383842"/>
<path d="M60.2236 130.715C65.4698 130.715 69.7226 126.383 69.7226 121.039C69.7226 115.695 65.4698 111.363 60.2236 111.363C54.9775 111.363 50.7246 115.695 50.7246 121.039C50.7246 126.383 54.9775 130.715 60.2236 130.715Z" fill="white"/>
<path d="M68.0242 125.11C70.2348 122.859 70.2348 119.208 68.0242 116.956C65.8137 114.704 62.2297 114.704 60.0191 116.956C57.8086 119.208 57.8086 122.859 60.0191 125.11C62.2297 127.362 65.8137 127.362 68.0242 125.11Z" fill="#383842"/>
<path d="M40.2497 134.043C42.5969 134.043 44.4998 131.505 44.4998 128.374C44.4998 125.243 42.5969 122.705 40.2497 122.705C37.9024 122.705 35.9995 125.243 35.9995 128.374C35.9995 131.505 37.9024 134.043 40.2497 134.043Z" fill="#383842"/>
<path d="M151.378 25.3905C149.608 25.3905 148.172 23.9292 148.171 22.1255C148.171 21.3124 148.066 20.509 147.859 19.7377C147.391 17.9971 148.398 16.2006 150.106 15.7246C151.815 15.2496 153.579 16.2738 154.046 18.0144C154.403 19.3457 154.585 20.7276 154.586 22.1216C154.587 23.9259 153.151 25.3892 151.38 25.3905C151.38 25.3905 151.379 25.3905 151.378 25.3905Z" fill="#D3C1E7"/>
<path d="M143.095 13.9472C141.905 13.3728 140.586 13.069 139.279 13.068C137.508 13.0667 136.073 11.6028 136.074 9.7985C136.076 7.99515 137.511 6.53418 139.281 6.53418H139.284C141.533 6.53581 143.801 7.05754 145.842 8.04252C147.442 8.81515 148.125 10.7632 147.367 12.3937C146.612 14.0161 144.704 14.7231 143.095 13.9472Z" fill="#D3C1E7"/>
</g>
<defs>
<radialGradient id="paint0_radial" cx="0" cy="0" r="1" gradientUnits="userSpaceOnUse" gradientTransform="translate(43.8866 118.678) scale(44.1913 45.0147)">
<stop offset="0.0223" stop-color="#F7F0A9"/>
<stop offset="0.9994" stop-color="#F4E46A"/>
</radialGradient>
<linearGradient id="paint1_linear" x1="76.564" y1="44.6998" x2="161" y2="44.6998" gradientUnits="userSpaceOnUse">
<stop stop-color="#8D68F4" stop-opacity="0.8"/>
<stop offset="0.9777" stop-color="#8D68F4"/>
</linearGradient>
<linearGradient id="paint2_linear" x1="0" y1="41" x2="80.5" y2="41" gradientUnits="userSpaceOnUse">
<stop offset="0.0206" stop-color="#77E4D3"/>
<stop offset="1" stop-color="#01C2A0"/>
</linearGradient>
<linearGradient id="paint3_linear" x1="120.75" y1="164" x2="120.75" y2="82" gradientUnits="userSpaceOnUse">
<stop stop-color="#FD869C"/>
<stop offset="0.9788" stop-color="#F3385D"/>
</linearGradient>
<clipPath id="clip0">
<rect width="161" height="164" fill="white"/>
</clipPath>
</defs>
</svg>
