<svg width="161" height="164" viewBox="0 0 161 164" fill="none" xmlns="http://www.w3.org/2000/svg">
<g clip-path="url(#clip0)">
<path d="M80.5017 5.01801L94.0074 83.7566L80.5017 150.86C73.3048 158.933 62.9168 164 51.371 164C29.6456 164 12.0318 146.061 12.0318 123.931C12.0318 120.569 12.4391 117.306 13.2056 114.186C8.03887 108.671 4.86377 101.2 4.86377 92.9736C4.86377 80.5789 12.0735 69.896 22.4551 65.0414C19.4885 60.2847 17.7694 54.6427 17.7694 48.5891C17.7694 32.1172 30.4955 18.6738 46.48 17.9028C48.0419 7.75896 56.6596 0 67.054 0C72.1823 0 76.8712 1.89155 80.5017 5.01801Z" fill="url(#paint0_linear)"/>
<path d="M147.794 114.186C148.561 117.306 148.968 120.569 148.968 123.931C148.968 146.061 131.358 164 109.632 164C98.0832 164 87.6984 158.933 80.5015 150.86V5.01801C84.1288 1.89155 88.8209 0 93.9459 0C104.344 0 112.958 7.75896 114.52 17.9028C130.504 18.6738 143.234 32.1172 143.234 48.5891C143.234 54.6427 141.515 60.2847 138.548 65.0414C148.926 69.896 156.136 80.5789 156.136 92.9736C156.136 101.2 152.964 108.671 147.794 114.186Z" fill="url(#paint1_linear)"/>
<path d="M54.7796 38.3587C49.5948 34.4998 46.2267 28.2597 46.2267 21.2178C46.2267 20.0904 46.3149 18.9839 46.4813 17.9038C44.7867 17.9852 43.1292 18.2102 41.5192 18.5654C41.4326 19.4376 41.3877 20.3226 41.3877 21.2178C41.3877 29.8748 45.5413 37.5606 51.9236 42.3215C52.8764 43.0324 54.201 42.9115 55.0361 42.0608C56.0733 41.0036 55.9643 39.2405 54.7796 38.3587Z" fill="#8D68F4"/>
<path d="M61.4878 121.846C60.9057 119.574 60.0645 117.416 58.9929 115.403C62.9179 111.064 65.7402 105.658 66.9451 99.6328C67.212 98.2992 66.3666 96.9974 65.0571 96.7259C63.7482 96.4524 62.4702 97.3149 62.2033 98.6488C59.7623 110.854 49.5446 120.1 37.3561 121.133C36.0245 121.246 35.0347 122.437 35.1457 123.794C35.2509 125.081 36.3086 126.054 37.5543 126.054C37.6216 126.054 37.6893 126.051 37.7576 126.045C44.3121 125.49 50.3775 122.908 55.3076 118.9C55.9272 120.233 56.4323 121.632 56.8057 123.09C58.3682 129.189 57.5055 135.543 54.3765 140.981C53.7008 142.156 54.0879 143.666 55.2406 144.354C56.3881 145.039 57.8724 144.654 58.5516 143.473C62.3339 136.9 63.3768 129.219 61.4878 121.846Z" fill="#8D68F4"/>
<path d="M121.367 151.86C120.491 150.28 121.038 148.275 122.589 147.382C125.025 145.98 127.22 144.206 129.111 142.11C130.316 140.774 132.358 140.686 133.669 141.914C134.981 143.142 135.067 145.221 133.862 146.558C131.513 149.161 128.788 151.364 125.763 153.105C124.206 154 122.241 153.435 121.367 151.86Z" fill="#FDC6E3"/>
<path d="M136.2 137.755C134.536 137.109 133.701 135.209 134.336 133.514C134.713 132.509 135.034 131.462 135.291 130.401C135.718 128.64 137.466 127.564 139.197 127.999C140.926 128.434 141.982 130.215 141.555 131.978C141.235 133.297 140.834 134.602 140.365 135.856C139.728 137.555 137.861 138.402 136.2 137.755Z" fill="#FDC6E3"/>
<path d="M27.7575 43.9293C26.0625 43.37 25.1337 41.5166 25.6828 39.7901C26.6199 36.8439 28.06 34.1749 29.9631 31.857C31.1061 30.4646 33.1404 30.2797 34.5073 31.4444C35.8742 32.6087 36.0554 34.6812 34.9124 36.0733C33.5612 37.7191 32.4923 39.7048 31.8207 41.8162C31.271 43.5451 29.4499 44.4882 27.7575 43.9293Z" fill="#D3C1E7"/>
<path d="M27.0544 59.9406C26.0505 57.887 25.328 55.6796 24.9069 53.379C24.5801 51.5949 25.7353 49.8788 27.4867 49.5459C29.2385 49.2137 30.9232 50.3898 31.2497 52.1738C31.5614 53.8756 32.0928 55.5031 32.8302 57.0112C33.6243 58.6358 32.9751 60.6087 31.3802 61.4176C29.792 62.2232 27.8517 61.5728 27.0544 59.9406Z" fill="#D3C1E7"/>
<path d="M42.808 78.8663C34.2564 77.3769 26.9334 72.2214 22.4546 65.042C20.9822 65.7307 19.5733 66.536 18.2397 67.4471C23.4277 75.8905 31.9882 81.9706 41.984 83.72C43.1418 83.9226 44.2788 83.2607 44.681 82.1362C45.1986 80.6893 44.2983 79.1261 42.808 78.8663Z" fill="#8D68F4"/>
<path d="M106.222 38.3587C111.407 34.4998 114.775 28.2597 114.775 21.2178C114.775 20.0904 114.687 18.9839 114.52 17.9038C116.215 17.9852 117.872 18.2102 119.482 18.5654C119.569 19.4376 119.614 20.3226 119.614 21.2178C119.614 29.8748 115.46 37.5606 109.078 42.3215C108.125 43.0324 106.8 42.9115 105.965 42.0608C104.928 41.0036 105.038 39.2405 106.222 38.3587Z" fill="#FD75BE"/>
<path d="M102.45 143.474C103.13 144.655 104.614 145.04 105.761 144.355C106.914 143.666 107.301 142.156 106.626 140.982C103.497 135.544 102.634 129.19 104.196 123.091C104.57 121.633 105.075 120.234 105.694 118.901C110.624 122.908 116.69 125.491 123.244 126.046C123.313 126.052 123.38 126.055 123.448 126.055C124.693 126.055 125.751 125.082 125.856 123.795C125.967 122.438 124.978 121.247 123.646 121.134C111.457 120.101 101.24 110.855 98.7987 98.6498C98.5316 97.3159 97.2535 96.4534 95.945 96.7269C94.6355 96.9983 93.7904 98.2999 94.0569 99.6338C95.2618 105.659 98.0842 111.065 102.009 115.404C100.938 117.417 100.096 119.575 99.5142 121.847C97.6249 129.219 98.6679 136.9 102.45 143.474Z" fill="#FD75BE"/>
<path d="M118.194 78.8663C126.745 77.3769 134.068 72.2214 138.547 65.042C140.019 65.7307 141.428 66.536 142.762 67.4471C137.574 75.8905 129.013 81.9706 119.017 83.72C117.86 83.9226 116.723 83.2607 116.321 82.1362C115.803 80.6893 116.703 79.1261 118.194 78.8663Z" fill="#FD75BE"/>
<path d="M47.069 73.9932C50.207 73.9932 52.7508 71.9108 52.7508 69.342C52.7508 66.7733 50.207 64.6909 47.069 64.6909C43.931 64.6909 41.3872 66.7733 41.3872 69.342C41.3872 71.9108 43.931 73.9932 47.069 73.9932Z" fill="#FD75BE"/>
<path d="M113.932 73.9932C117.07 73.9932 119.614 71.9108 119.614 69.342C119.614 66.7733 117.07 64.6909 113.932 64.6909C110.794 64.6909 108.25 66.7733 108.25 69.342C108.25 71.9108 110.794 73.9932 113.932 73.9932Z" fill="#FD75BE"/>
<path d="M56.8099 69.342C63.0322 69.342 68.0764 64.2038 68.0764 57.8656C68.0764 51.5273 63.0322 46.3892 56.8099 46.3892C50.5876 46.3892 45.5435 51.5273 45.5435 57.8656C45.5435 64.2038 50.5876 69.342 56.8099 69.342Z" fill="white"/>
<path d="M104.191 69.342C110.414 69.342 115.458 64.2038 115.458 57.8656C115.458 51.5273 110.414 46.3892 104.191 46.3892C97.969 46.3892 92.9248 51.5273 92.9248 57.8656C92.9248 64.2038 97.969 69.342 104.191 69.342Z" fill="white"/>
<path d="M56.8101 64.7058C60.5186 64.7058 63.5249 61.6435 63.5249 57.8659C63.5249 54.0882 60.5186 51.0259 56.8101 51.0259C53.1016 51.0259 50.0952 54.0882 50.0952 57.8659C50.0952 61.6435 53.1016 64.7058 56.8101 64.7058Z" fill="#383842"/>
<path d="M104.191 64.7058C107.9 64.7058 110.906 61.6435 110.906 57.8659C110.906 54.0882 107.9 51.0259 104.191 51.0259C100.483 51.0259 97.4766 54.0882 97.4766 57.8659C97.4766 61.6435 100.483 64.7058 104.191 64.7058Z" fill="#383842"/>
<path d="M80.5011 69.4009C78.5771 69.4009 76.6528 68.6596 75.0832 67.1771C74.4338 66.5639 74.3953 65.5302 74.9976 64.8686C75.5999 64.2071 76.6146 64.1679 77.2638 64.7814C79.1701 66.5818 81.8324 66.5818 83.7384 64.7814C84.3875 64.1685 85.4023 64.2068 86.0043 64.8686C86.6066 65.5302 86.5684 66.5635 85.9186 67.1771C84.3494 68.6599 82.4251 69.4009 80.5011 69.4009Z" fill="#383842"/>
</g>
<defs>
<linearGradient id="paint0_linear" x1="49.4354" y1="164" x2="49.4354" y2="0" gradientUnits="userSpaceOnUse">
<stop offset="0.0223" stop-color="#8D68F4"/>
<stop offset="1" stop-color="#B69BFF"/>
</linearGradient>
<linearGradient id="paint1_linear" x1="80.5015" y1="82" x2="156.136" y2="82" gradientUnits="userSpaceOnUse">
<stop offset="0.0212" stop-color="#FFB1DB"/>
<stop offset="1" stop-color="#FD86C8"/>
</linearGradient>
<clipPath id="clip0">
<rect width="161" height="164" fill="white"/>
</clipPath>
</defs>
</svg>
