<svg width="161" height="164" viewBox="0 0 161 164" fill="none" xmlns="http://www.w3.org/2000/svg">
<g clip-path="url(#clip0)">
<path d="M119.198 102.068C142.285 102.068 161 83.0039 161 59.487C161 35.97 142.285 16.9058 119.198 16.9058C96.111 16.9058 77.3955 35.97 77.3955 59.487C77.3955 83.0039 96.111 102.068 119.198 102.068Z" fill="url(#paint0_linear)"/>
<path d="M147.529 54.5627C147.066 51.7296 146.217 48.9867 145.006 46.4101C144.227 44.7518 144.915 42.7642 146.543 41.9706C148.171 41.1768 150.123 41.8775 150.902 43.5362C152.378 46.6773 153.412 50.0197 153.976 53.4696C154.272 55.2831 153.069 56.9979 151.289 57.2998C149.505 57.6013 147.825 56.3726 147.529 54.5627Z" fill="#8959C3"/>
<path d="M138.745 37.8171C137.933 37.086 137.074 36.4143 136.191 35.8207C134.686 34.808 134.27 32.7432 135.264 31.2091C136.258 29.6753 138.285 29.2519 139.792 30.265C140.93 31.0297 142.034 31.8929 143.074 32.8301C144.426 34.0477 144.553 36.1516 143.358 37.5287C142.163 38.9053 140.097 39.0354 138.745 37.8171Z" fill="#8959C3"/>
<path d="M83.6045 147.095C83.6045 108.718 61.1229 97.2539 61.1229 97.2539H22.4816C22.4816 97.2539 0 108.718 0 147.095H83.6045Z" fill="url(#paint1_linear)"/>
<path d="M41.1944 109.862C35.6309 109.862 32.113 115.998 34.8952 120.906C38.7057 127.627 45.8365 132.16 53.9885 132.16H60.2194C59.4721 136.919 59.0959 141.908 59.0959 147.094H83.6041C83.6041 133.319 80.7074 123.013 76.9935 115.459L42.3112 109.95C41.942 109.891 41.5684 109.862 41.1944 109.862Z" fill="#FD75BE"/>
<path d="M20.5571 127.194C19.1572 127.194 18.0225 128.35 18.0225 129.776V147.094H23.0917V129.776C23.0917 128.35 21.957 127.194 20.5571 127.194Z" fill="#FD75BE"/>
<path d="M41.8023 102.068C64.889 102.068 83.6045 83.0039 83.6045 59.487C83.6045 35.97 64.889 16.9058 41.8023 16.9058C18.7155 16.9058 0 35.97 0 59.487C0 83.0039 18.7155 102.068 41.8023 102.068Z" fill="url(#paint2_linear)"/>
<path d="M13.0831 75.1213C15.7788 75.1213 17.9641 73.3325 17.9641 71.1258C17.9641 68.9192 15.7788 67.1304 13.0831 67.1304C10.3874 67.1304 8.20215 68.9192 8.20215 71.1258C8.20215 73.3325 10.3874 75.1213 13.0831 75.1213Z" fill="#FD75BE"/>
<path d="M70.5211 75.1213C73.2168 75.1213 75.4021 73.3325 75.4021 71.1258C75.4021 68.9192 73.2168 67.1304 70.5211 67.1304C67.8254 67.1304 65.6401 68.9192 65.6401 71.1258C65.6401 73.3325 67.8254 75.1213 70.5211 75.1213Z" fill="#FD75BE"/>
<path d="M21.4507 71.1259C26.7959 71.1259 31.129 66.7121 31.129 61.2673C31.129 55.8225 26.7959 51.4087 21.4507 51.4087C16.1056 51.4087 11.7725 55.8225 11.7725 61.2673C11.7725 66.7121 16.1056 71.1259 21.4507 71.1259Z" fill="white"/>
<path d="M62.1529 71.1259C67.4981 71.1259 71.8312 66.7121 71.8312 61.2673C71.8312 55.8225 67.4981 51.4087 62.1529 51.4087C56.8077 51.4087 52.4746 55.8225 52.4746 61.2673C52.4746 66.7121 56.8077 71.1259 62.1529 71.1259Z" fill="white"/>
<path d="M21.4505 67.1429C24.6364 67.1429 27.219 64.5122 27.219 61.267C27.219 58.0218 24.6364 55.3911 21.4505 55.3911C18.2647 55.3911 15.6821 58.0218 15.6821 61.267C15.6821 64.5122 18.2647 67.1429 21.4505 67.1429Z" fill="#383842"/>
<path d="M62.1532 67.1429C65.339 67.1429 67.9216 64.5122 67.9216 61.267C67.9216 58.0218 65.339 55.3911 62.1532 55.3911C58.9674 55.3911 56.3848 58.0218 56.3848 61.267C56.3848 64.5122 58.9674 67.1429 62.1532 67.1429Z" fill="#383842"/>
<path d="M41.8022 71.4082C40.0947 71.4082 38.3872 70.7503 36.9943 69.4347C36.3449 68.8215 36.3064 67.7878 36.9087 67.1266C37.511 66.465 38.5258 66.4258 39.1749 67.0394C40.7217 68.5 42.8827 68.5 44.4295 67.0394C45.079 66.4255 46.0934 66.465 46.6957 67.1266C47.298 67.7881 47.2595 68.8215 46.6101 69.4347C45.2172 70.7503 43.5097 71.4082 41.8022 71.4082Z" fill="#383842"/>
<path d="M158.059 147.095C158.059 108.718 135.577 97.2539 135.577 97.2539H100.204H53.0085C46.2529 97.2539 40.7764 102.833 40.7764 109.714C40.7764 116.595 46.2529 122.174 53.0085 122.174H78.2852C76.003 128.816 74.4549 137.028 74.4549 147.094H158.059V147.095Z" fill="url(#paint3_linear)"/>
<path d="M129.937 113.301C126.566 116.736 127.844 122.604 132.343 124.214C134.604 125.024 137.009 125.445 139.477 125.445C144.678 125.445 149.593 123.568 153.487 120.138C151.607 115.247 149.338 111.282 147.056 108.113L133.015 111.545C131.85 111.831 130.785 112.438 129.937 113.301Z" fill="#8959C3"/>
<path d="M149.691 95.5397L147.374 93.1797C143.46 89.1934 137.116 89.1934 133.202 93.1797L131.233 95.1852C126.68 99.8233 126.68 107.343 131.233 111.981C135.786 116.619 143.168 116.619 147.722 111.981L149.691 109.975C153.604 105.989 153.604 99.526 149.691 95.5397Z" fill="url(#paint4_linear)"/>
</g>
<defs>
<linearGradient id="paint0_linear" x1="119.198" y1="102.068" x2="119.198" y2="16.9058" gradientUnits="userSpaceOnUse">
<stop offset="0.0223" stop-color="#8959C3"/>
<stop offset="1" stop-color="#A27CCF"/>
</linearGradient>
<linearGradient id="paint1_linear" x1="41.8023" y1="147.095" x2="41.8023" y2="97.2539" gradientUnits="userSpaceOnUse">
<stop stop-color="#FD86C8"/>
<stop offset="0.9788" stop-color="#FFB1DB"/>
</linearGradient>
<linearGradient id="paint2_linear" x1="41.8023" y1="102.068" x2="41.8023" y2="16.9058" gradientUnits="userSpaceOnUse">
<stop stop-color="#FD86C8"/>
<stop offset="0.9788" stop-color="#FFB1DB"/>
</linearGradient>
<linearGradient id="paint3_linear" x1="99.4176" y1="147.095" x2="99.4176" y2="97.2539" gradientUnits="userSpaceOnUse">
<stop offset="0.0223" stop-color="#8959C3"/>
<stop offset="1" stop-color="#A27CCF"/>
</linearGradient>
<linearGradient id="paint4_linear" x1="140.222" y1="115.459" x2="140.222" y2="90.1898" gradientUnits="userSpaceOnUse">
<stop stop-color="#FD86C8"/>
<stop offset="0.9788" stop-color="#FFB1DB"/>
</linearGradient>
<clipPath id="clip0">
<rect width="161" height="164" fill="white"/>
</clipPath>
</defs>
</svg>
