<svg width="161" height="164" viewBox="0 0 161 164" fill="none" xmlns="http://www.w3.org/2000/svg">
<g clip-path="url(#clip0)">
<path d="M35.0308 164C35.0308 124.617 57.7603 111.612 57.7603 111.612H103.24C103.24 111.612 125.969 124.617 125.969 164H35.0308Z" fill="url(#paint0_linear)"/>
<path d="M77.2652 114.869L70.4208 111.612H57.7605C57.7605 111.612 54.23 113.634 49.9526 118.491C57.502 122.472 65.7617 124.939 74.3688 125.735C77.6591 126.039 80.5003 123.41 80.5003 120.045C80.5003 117.826 79.2389 115.808 77.2652 114.869Z" fill="#8D68F4"/>
<path d="M80.5001 116.408C48.8451 116.408 23.3628 90.2497 23.3628 58.202C23.3628 26.0587 48.9448 0 80.5001 0C112.056 0 137.638 26.0587 137.638 58.202C137.638 90.2369 112.161 116.408 80.5001 116.408Z" fill="url(#paint1_linear)"/>
<path d="M40.254 65.8237C39.5568 63.9502 39.1722 61.9201 39.1722 59.7976C39.1722 50.8981 45.8819 43.5991 54.4287 42.852C56.5288 35.9022 62.8812 30.8506 70.3927 30.8506C74.1926 30.8506 77.6942 32.1453 80.5005 34.3224C83.3067 32.1453 86.8083 30.8506 90.6082 30.8506C98.1197 30.8506 104.472 35.9022 106.572 42.852C115.119 43.5988 121.829 50.8978 121.829 59.7976C121.829 61.9201 121.444 63.9502 120.747 65.8237C125.011 68.1789 127.913 72.78 127.913 78.0578C127.913 85.7265 121.79 91.9641 114.261 91.9641H46.7399C39.2113 91.9641 33.0879 85.7265 33.0879 78.0578C33.0879 72.78 35.9897 68.1789 40.254 65.8237Z" fill="url(#paint2_linear)"/>
<path d="M103.924 66.9175C104.463 67.4673 105.323 67.5327 105.926 67.0564C108.232 65.2367 111.124 64.1514 114.261 64.1514C116.607 64.1514 118.816 64.7577 120.747 65.8237C121.112 64.8424 121.389 63.8172 121.571 62.7587C119.363 61.662 116.883 61.0452 114.261 61.0452C114.115 61.0452 113.97 61.0508 113.824 61.0547C113.395 60.9024 112.921 60.713 112.436 60.479C111.066 59.8181 109.319 58.6571 108.777 56.8792C108.527 56.0599 107.672 55.6022 106.868 55.8563C106.063 56.1108 105.614 56.9815 105.864 57.8011C106.409 59.5904 107.581 60.9367 108.912 61.941C107.142 62.5516 105.504 63.4542 104.056 64.5957C103.334 65.1655 103.277 66.2589 103.924 66.9175Z" fill="#FD75BE"/>
<path d="M82.3691 48.0942C84.1328 48.0851 85.2331 47.6826 85.9192 47.2017C86.6395 46.6966 86.9929 45.7897 86.8422 44.9125C86.1029 40.61 83.7761 36.8641 80.5 34.3224C81.3528 33.6609 82.2697 33.081 83.2402 32.5942C86.7938 35.7014 89.2546 40.0703 89.9461 45.0119C90.0817 45.9808 90.6395 46.8498 91.4714 47.3395C92.1773 47.7551 93.2168 48.0851 94.7392 48.0939C95.5683 48.0988 96.2937 48.7414 96.3261 49.5856C96.3601 50.4719 95.6648 51.2014 94.8021 51.2014C91.4589 51.2014 89.5779 50.0433 88.5545 48.9792C87.5311 50.0433 85.6498 51.2014 82.3069 51.2014C81.4448 51.2014 80.7495 50.4725 80.7829 49.5869C80.8149 48.743 81.5401 48.0984 82.3691 48.0942Z" fill="#FD75BE"/>
<path d="M39.4292 62.7587C39.6117 63.8172 39.8885 64.8424 40.2538 65.8238C42.1842 64.7578 44.3936 64.1514 46.7396 64.1514C49.8766 64.1514 52.7685 65.2367 55.0741 67.0564C55.6774 67.5327 56.5369 67.467 57.0767 66.9175C57.7232 66.2589 57.6665 65.1655 56.9436 64.5954C55.5347 63.4843 53.9471 62.598 52.2319 61.9884C53.652 60.8378 55.6828 59.9139 58.5872 59.678C59.4269 59.6097 60.0536 58.8613 59.9865 58.006C59.9195 57.1507 59.1899 56.5091 58.3448 56.5806C53.3817 56.9835 50.4275 59.0831 48.6957 61.1635C48.0536 61.087 47.4013 61.0449 46.7393 61.0449C44.1171 61.0449 41.6373 61.662 39.4292 62.7587Z" fill="#FD75BE"/>
<path d="M52.0268 78.8004C53.3812 83.1634 56.0226 85.002 58.0851 85.7769C59.2702 83.9749 60.0559 81.8778 60.3045 79.6168C60.3985 78.7618 61.1412 78.1388 61.9809 78.229C62.8237 78.3195 63.4312 79.0928 63.3375 79.9507C62.7961 84.9069 60.1537 89.2252 56.3433 91.9641H46.7397C50.317 91.9641 53.5755 90.5528 56.012 88.2506C53.6874 87.1317 50.6756 84.754 49.1179 79.7373C48.8642 78.9193 49.309 78.046 50.1121 77.7873C50.9158 77.5292 51.7724 77.9823 52.0268 78.8004Z" fill="#FD75BE"/>
<path d="M108.974 78.8004C107.62 83.1634 104.978 85.002 102.916 85.7769C101.731 83.9749 100.945 81.8778 100.696 79.6168C100.602 78.7618 99.8596 78.1388 99.02 78.229C98.1771 78.3195 97.5697 79.0928 97.6633 79.9507C98.2047 84.9069 100.847 89.2252 104.658 91.9641H114.261C110.684 91.9641 107.425 90.5528 104.989 88.2506C107.313 87.1317 110.325 84.754 111.883 79.7373C112.137 78.9193 111.692 78.046 110.889 77.7873C110.085 77.5292 109.228 77.9823 108.974 78.8004Z" fill="#FD75BE"/>
<path d="M119.877 40.2233C118.884 38.2801 117.744 36.4094 116.487 34.6636C115.46 33.2369 115.763 31.2327 117.163 30.1863C118.563 29.1402 120.532 29.4483 121.559 30.8753C123.004 32.8838 124.316 35.0334 125.456 37.2654C126.257 38.8345 125.659 40.7688 124.118 41.5856C122.579 42.4023 120.68 41.7934 119.877 40.2233Z" fill="#BDE5F6"/>
<path d="M109.495 26.9707C108.637 26.22 107.742 25.4947 106.836 24.8155C105.437 23.7672 105.137 21.7619 106.167 20.3372C107.196 18.9122 109.164 18.6074 110.563 19.6554C111.596 20.4297 112.615 21.2559 113.593 22.1108C114.91 23.2634 115.061 25.2856 113.929 26.6277C112.799 27.9694 110.813 28.1236 109.495 26.9707Z" fill="#BDE5F6"/>
<path d="M53.4287 164V150.173C53.4287 148.845 54.4845 147.77 55.7873 147.77C57.09 147.77 58.1458 148.845 58.1458 150.173V164H53.4287Z" fill="#8D68F4"/>
<path d="M107.572 164V150.173C107.572 148.845 106.516 147.77 105.213 147.77C103.91 147.77 102.854 148.845 102.854 150.173V164H107.572Z" fill="#8D68F4"/>
<path d="M80.5003 131.611C67.4869 118.656 46.122 140.357 77.6036 159.032C79.3961 160.095 81.6049 160.095 83.3974 159.032C114.879 140.357 93.5137 118.657 80.5003 131.611Z" fill="url(#paint3_linear)"/>
</g>
<defs>
<linearGradient id="paint0_linear" x1="80.5001" y1="164" x2="80.5001" y2="111.612" gradientUnits="userSpaceOnUse">
<stop offset="0.0212" stop-color="#8D68F4"/>
<stop offset="0.276042" stop-color="#AD90FD"/>
</linearGradient>
<linearGradient id="paint1_linear" x1="80.5001" y1="116.408" x2="80.5001" y2="0" gradientUnits="userSpaceOnUse">
<stop offset="0.0212" stop-color="#BFA8FE"/>
<stop offset="1" stop-color="#8D68F4"/>
</linearGradient>
<linearGradient id="paint2_linear" x1="80.5005" y1="91.9641" x2="80.5005" y2="30.8506" gradientUnits="userSpaceOnUse">
<stop stop-color="#FD86C8"/>
<stop offset="0.9788" stop-color="#FFB1DB"/>
</linearGradient>
<linearGradient id="paint3_linear" x1="80.5003" y1="159.829" x2="80.5003" y2="127.686" gradientUnits="userSpaceOnUse">
<stop stop-color="#FD869C"/>
<stop offset="0.9788" stop-color="#F3385D"/>
</linearGradient>
<clipPath id="clip0">
<rect width="161" height="164" fill="white"/>
</clipPath>
</defs>
</svg>
