<svg width="161" height="164" viewBox="0 0 161 164" fill="none" xmlns="http://www.w3.org/2000/svg">
<g clip-path="url(#clip0)">
<path d="M119.115 141.654C115.01 138.158 111.171 132.938 111.171 125.642L87.0657 117.973L75.1299 125.642C81.3797 144.661 99.8357 154.41 109.409 158.305C112.879 159.717 116.836 158.95 119.559 156.345C123.78 152.308 123.557 145.436 119.115 141.654Z" fill="url(#paint0_linear)"/>
<path d="M111.171 125.642L87.0657 117.973L75.1299 125.642C76.4111 129.541 78.211 133.044 80.3364 136.193H114.274C112.429 133.312 111.171 129.817 111.171 125.642Z" fill="#8959C3"/>
<path d="M0 102.031C0 115.052 10.3967 125.642 23.1792 125.642H137.821C150.604 125.642 161 115.052 161 102.031C161 93.07 156.073 85.2581 148.833 81.2594C150.016 78.078 150.67 74.6311 150.67 71.0273C150.67 55.9171 139.278 43.5247 124.766 42.2564C121.201 30.4566 110.415 21.8796 97.6616 21.8796C91.21 21.8796 85.2649 24.0779 80.5 27.7741C75.7351 24.0779 69.79 21.8796 63.3384 21.8796C50.5848 21.8796 39.7994 30.4566 36.2337 42.2564C21.7225 43.5247 10.3303 55.9171 10.3303 71.0273C10.3303 74.6311 10.9836 78.078 12.167 81.2594C4.92718 85.2581 0 93.07 0 102.031H0ZM62.7836 92.5394C63.0026 88.8334 66.0231 85.8514 69.6658 85.7341C71.0359 85.69 72.3211 86.0422 73.4234 86.6835V78.5596C73.4234 76.9918 74.671 75.7206 76.2104 75.7206H85.8059C84.7473 74.3939 84.1385 72.6798 84.2193 70.8186C84.3784 67.1495 87.2864 64.1295 90.8855 63.9031C95.0253 63.6428 98.4627 66.9858 98.4627 71.1469C98.4627 72.881 97.8649 74.4723 96.8688 75.7206H106.464C108.003 75.7206 109.251 76.9915 109.251 78.5596V82.9876C109.251 84.6403 107.849 85.8867 106.231 85.754C105.981 85.7334 105.726 85.7263 105.469 85.7328C101.809 85.8279 98.7632 88.8151 98.5423 92.5372C98.2921 96.7502 101.572 100.246 105.654 100.246C105.851 100.246 106.046 100.238 106.239 100.222C107.862 100.087 109.251 101.39 109.251 103.049V107.417C109.251 108.985 108.004 110.256 106.464 110.256H76.2104C74.6713 110.256 73.4234 108.985 73.4234 107.417V99.2932C72.383 99.8985 71.1793 100.246 69.8955 100.246C65.8144 100.246 62.5347 96.7512 62.7836 92.5394Z" fill="url(#paint1_linear)"/>
<path d="M120.27 83.1163C121.186 84.0497 122.646 84.1608 123.67 83.3522C127.585 80.2623 132.495 78.4198 137.821 78.4198C141.804 78.4198 145.555 79.4492 148.833 81.2594C149.453 79.593 149.923 77.8527 150.233 76.0552C146.484 74.193 142.273 73.1457 137.822 73.1457C137.573 73.1457 137.327 73.1551 137.08 73.1617H137.08C136.351 72.9033 135.546 72.5815 134.723 72.1842C132.397 71.062 129.431 69.0907 128.511 66.0721C128.086 64.6807 126.635 63.9038 125.269 64.3354C123.904 64.7676 123.141 66.2459 123.565 67.6373C124.491 70.6752 126.481 72.9608 128.74 74.6661C125.735 75.7027 122.954 77.2352 120.496 79.1735C119.268 80.1418 119.172 81.9981 120.27 83.1163Z" fill="#FD75BE"/>
<path d="M83.6733 51.1569C86.6675 51.1412 88.536 50.4581 89.7006 49.6414C90.9238 48.7838 91.5238 47.2444 91.2679 45.7544C90.0126 38.4492 86.0623 32.0891 80.4995 27.7738C81.9475 26.6503 83.5046 25.6663 85.1522 24.8398C91.1858 30.1153 95.3641 37.5328 96.5379 45.9233C96.7682 47.5688 97.715 49.0439 99.1277 49.8756C100.327 50.5813 102.091 51.1416 104.676 51.1566C106.084 51.1648 107.316 52.2562 107.37 53.6891C107.428 55.1942 106.248 56.4327 104.783 56.4327C99.1069 56.4327 95.9132 54.4667 94.1755 52.6597C92.4379 54.4667 89.2439 56.4327 83.5681 56.4327C82.1041 56.4327 80.9238 55.1952 80.9806 53.6911C81.0345 52.2585 82.2657 51.1644 83.6733 51.1569Z" fill="#FD75BE"/>
<path d="M10.7673 76.0552C11.0771 77.8526 11.5473 79.5929 12.1673 81.2594C15.4447 79.4492 19.1958 78.4198 23.1791 78.4198C28.5052 78.4198 33.4154 80.2623 37.3298 83.3522C38.3541 84.1608 39.8134 84.0497 40.73 83.1163C41.8278 81.9981 41.7316 80.1418 40.5042 79.1738C38.1123 77.2875 35.4167 75.7824 32.5043 74.7478C34.9151 72.7941 38.3631 71.2257 43.2948 70.8252C44.7204 70.7095 45.7842 69.4383 45.6707 67.9862C45.5568 66.534 44.3182 65.4448 42.8833 65.5664C34.4568 66.2505 29.4411 69.8153 26.5001 73.3472C25.4103 73.2175 24.3026 73.146 23.1781 73.146C18.7266 73.1457 14.5162 74.193 10.7673 76.0552Z" fill="#FD75BE"/>
<path d="M32.1552 103.291C34.455 110.699 38.9396 113.821 42.4415 115.136C44.4537 112.076 45.7876 108.516 46.2096 104.677C46.369 103.226 47.6301 102.168 49.056 102.321C50.487 102.475 51.5185 103.788 51.3594 105.244C50.4399 113.66 45.9537 120.991 39.4842 125.642H23.179C29.253 125.642 34.7851 123.245 38.922 119.337C34.9749 117.437 29.8617 113.4 27.2168 104.882C26.7857 103.493 27.5413 102.011 28.905 101.571C30.2694 101.133 31.7238 101.903 32.1552 103.291Z" fill="#FD75BE"/>
<path d="M134.669 61.485C133.388 59.7564 131.748 58.2896 129.927 57.2429C128.384 56.3562 127.84 54.3637 128.71 52.7923C129.581 51.2209 131.537 50.6662 133.079 51.5525C135.661 53.0364 137.981 55.1099 139.788 57.5486C140.855 58.9887 140.574 61.0374 139.161 62.1243C137.744 63.2135 135.733 62.9218 134.669 61.485Z" fill="#FDC6E3"/>
<path d="M120.408 54.9913L117.206 54.7113C115.441 54.5571 114.133 52.9749 114.284 51.1771C114.436 49.3793 115.998 48.0487 117.754 48.2016L120.957 48.4816C122.721 48.6358 124.029 50.2183 123.878 52.0157C123.727 53.8008 122.186 55.1458 120.408 54.9913Z" fill="#FDC6E3"/>
<path d="M39.7506 49.7263L36.2336 42.2564C28.4546 42.9363 21.5753 46.8154 16.8633 52.5933C18.53 57.5721 23.1641 61.1638 28.6089 61.1638H32.6827C37.012 61.1638 40.5216 57.5888 40.5216 53.1788C40.5213 51.9841 40.258 50.804 39.7506 49.7263Z" fill="#FD75BE"/>
<path d="M15.182 33.6468C15.401 29.9408 18.4216 26.9587 22.0643 26.8414C23.4344 26.7973 24.7195 27.1495 25.8218 27.7908V19.6669C25.8218 18.0991 27.0694 16.828 28.6088 16.828H38.2043C37.1457 15.5013 36.5369 13.7871 36.6178 11.9259C36.7768 8.25684 39.6848 5.23689 43.2839 5.01049C47.4237 4.75012 50.8611 8.09317 50.8611 12.2543C50.8611 13.9883 50.2633 15.5797 49.2672 16.828H58.8627C60.4018 16.828 61.6497 18.0988 61.6497 19.6669V24.0949C61.6497 25.7477 60.2472 26.994 58.6299 26.8614C58.3791 26.8408 58.1247 26.8336 57.8672 26.8401C54.2078 26.9352 51.1616 29.9225 50.9407 33.6445C50.6905 37.8575 53.9708 41.3535 58.0526 41.3535C58.2495 41.3535 58.4445 41.3453 58.6372 41.3293C60.2604 41.1944 61.6497 42.4972 61.6497 44.1562V48.5244C61.6497 50.0922 60.4021 51.3634 58.8627 51.3634H28.6088C27.0697 51.3634 25.8218 50.0922 25.8218 48.5244V40.4005C24.7814 41.0059 23.5777 41.3535 22.2939 41.3535C18.2128 41.3538 14.9331 37.8588 15.182 33.6468Z" fill="url(#paint2_linear)"/>
</g>
<defs>
<linearGradient id="paint0_linear" x1="75.1299" y1="138.489" x2="122.591" y2="138.489" gradientUnits="userSpaceOnUse">
<stop stop-color="#A27CCF"/>
<stop offset="0.9777" stop-color="#8959C3"/>
</linearGradient>
<linearGradient id="paint1_linear" x1="80.5" y1="125.642" x2="80.5" y2="21.8796" gradientUnits="userSpaceOnUse">
<stop offset="0.0212" stop-color="#FFB1DB"/>
<stop offset="1" stop-color="#FD86C8"/>
</linearGradient>
<linearGradient id="paint2_linear" x1="15.1688" y1="28.1799" x2="61.6497" y2="28.1799" gradientUnits="userSpaceOnUse">
<stop stop-color="#FD86C8"/>
<stop offset="0.9788" stop-color="#FFB1DB"/>
</linearGradient>
<clipPath id="clip0">
<rect width="161" height="164" fill="white"/>
</clipPath>
</defs>
</svg>
