<svg width="161" height="164" viewBox="0 0 161 164" fill="none" xmlns="http://www.w3.org/2000/svg">
<g clip-path="url(#clip0)">
<path d="M117.561 103.57L155.39 134.936C161.906 140.339 162.889 150.099 157.585 156.736C151.632 164.186 140.294 164.523 133.989 156.736L103.197 118.202C99.6371 113.747 100.296 107.197 104.67 103.57C108.491 100.402 113.886 100.52 117.561 103.57Z" fill="url(#paint0_linear)"/>
<path d="M117.561 103.57C113.886 100.52 108.491 100.402 104.67 103.57C100.297 107.196 99.6369 113.747 103.197 118.202L123.038 143.033C131.11 138.748 137.731 132.004 141.937 123.782L117.561 103.57Z" fill="#8D68F4"/>
<path d="M138.783 56.9198C139.887 53.9534 140.496 50.7391 140.496 47.3787C140.496 33.2887 129.873 21.733 116.342 20.5503C113.017 9.5473 102.96 1.54919 91.0673 1.54919C85.0516 1.54919 79.5077 3.59919 75.0645 7.04581C70.6213 3.59919 65.0777 1.54919 59.0617 1.54919C47.1692 1.54919 37.1121 9.5473 33.7869 20.5503C20.2555 21.733 9.63274 33.2887 9.63274 47.3787C9.63274 50.7391 10.2418 53.9534 11.3457 56.9198C4.59427 60.6487 0 67.9329 0 76.2888C0 88.4303 9.69464 98.3056 21.6141 98.3056H128.515C140.434 98.3056 150.129 88.4303 150.129 76.2888C150.129 67.9329 145.534 60.6487 138.783 56.9198Z" fill="url(#paint1_linear)"/>
<path d="M100.816 18.9322C99.0522 17.0795 96.7709 15.7182 94.3928 15.0985C92.6699 14.6496 91.6308 12.8632 92.0714 11.1082C92.5121 9.35357 94.2642 8.29411 95.989 8.74364C99.5538 9.67243 102.822 11.6166 105.439 14.3654C106.677 15.6656 106.646 17.7421 105.369 19.0031C104.093 20.2635 102.055 20.2328 100.816 18.9322Z" fill="#FDC6E3"/>
<path d="M77.0396 17.8358C75.979 16.3817 76.277 14.3275 77.7045 13.2474C78.877 12.3601 80.4508 11.2222 82.2256 10.2886C83.8048 9.45778 85.7477 10.0886 86.5637 11.6982C87.3792 13.3075 86.7599 15.286 85.1798 16.1171C83.8167 16.8339 82.521 17.7741 81.5441 18.5131C80.1163 19.5931 78.0996 19.2899 77.0396 17.8358Z" fill="#FDC6E3"/>
<path d="M37.7691 54.975C35.4769 53.1674 32.8846 51.7384 30.0821 50.7717C32.1883 49.1817 34.044 47.0504 34.908 44.2176C35.3034 42.9203 34.5917 41.5417 33.3182 41.1389C32.0449 40.7364 30.6915 41.461 30.2957 42.7583C29.4375 45.5731 26.672 47.4114 24.5033 48.4578C23.7355 48.8283 22.9847 49.1282 22.3051 49.3693H22.3054C22.0751 49.363 21.8452 49.3542 21.6136 49.3542C17.4626 49.3542 13.5363 50.331 10.0405 52.0674C10.3295 53.7434 10.7676 55.3664 11.3458 56.9201C14.402 55.2321 17.9 54.2723 21.6142 54.2723C26.5806 54.2723 31.1594 55.9907 34.8095 58.8718C35.7646 59.6258 37.1257 59.5222 37.9801 58.6519C39.0035 57.6088 38.9141 55.8776 37.7691 54.975Z" fill="#FD75BE"/>
<path d="M72.1053 28.85C69.3132 28.8353 67.571 28.1982 66.4851 27.437C65.3446 26.6373 64.785 25.2018 65.0236 23.8127C66.1939 17.0005 69.8776 11.07 75.0649 7.04615C73.7147 5.99877 72.2628 5.08076 70.7266 4.31009C65.1002 9.22944 61.2042 16.1462 60.1096 23.9702C59.895 25.5046 59.0121 26.88 57.6946 27.6556C56.5769 28.3135 54.9313 28.8359 52.5207 28.85C51.208 28.8575 50.0596 29.8751 50.0082 31.2116C49.9544 32.6151 51.0554 33.77 52.421 33.77C57.7138 33.77 60.692 31.9366 62.3122 30.2518C63.9325 31.9366 66.911 33.77 72.2035 33.77C73.5684 33.77 74.6691 32.6161 74.6165 31.2136C74.5662 29.8771 73.4183 28.8568 72.1053 28.85Z" fill="#FD75BE"/>
<path d="M128.516 49.3542C127.467 49.3542 126.435 49.4209 125.418 49.5417C122.676 46.2483 117.999 42.9239 110.142 42.2862C108.803 42.1728 107.649 43.1889 107.542 44.5427C107.437 45.8968 108.429 47.0821 109.758 47.1899C114.356 47.5633 117.572 49.0259 119.82 50.8475C117.104 51.8123 114.59 53.2161 112.36 54.975C111.216 55.8776 111.126 57.6088 112.15 58.6513C113.004 59.5216 114.365 59.6251 115.32 58.8711C118.97 55.99 123.549 54.2716 128.515 54.2716C132.23 54.2716 135.728 55.2314 138.784 56.9195C139.362 55.3654 139.8 53.7427 140.089 52.0668C136.593 50.3307 132.667 49.3542 128.516 49.3542Z" fill="#FD75BE"/>
<path d="M29.9847 77.4642C32.1293 84.3718 36.3111 87.2827 39.5763 88.5094C41.4525 85.6561 42.6963 82.3365 43.0901 78.7566C43.2389 77.4031 44.4147 76.4168 45.7444 76.5596C47.0786 76.703 48.0404 77.9271 47.8922 79.2855C47.0349 87.1327 42.8515 93.9691 36.8188 98.3056H21.6143C27.2781 98.3056 32.4369 96.0711 36.2944 92.4265C32.6139 90.6548 27.8461 86.8906 25.3798 78.9481C24.9779 77.6527 25.6826 76.2705 26.9542 75.8608C28.2258 75.4518 29.5822 76.1692 29.9847 77.4642Z" fill="#FD75BE"/>
<path d="M46.9197 63.8463C49.4227 63.8463 51.4518 62.1853 51.4518 60.1364C51.4518 58.0874 49.4227 56.4264 46.9197 56.4264C44.4168 56.4264 42.3877 58.0874 42.3877 60.1364C42.3877 62.1853 44.4168 63.8463 46.9197 63.8463Z" fill="#FD75BE"/>
<path d="M100.254 63.8463C102.757 63.8463 104.786 62.1853 104.786 60.1364C104.786 58.0874 102.757 56.4264 100.254 56.4264C97.7508 56.4264 95.7217 58.0874 95.7217 60.1364C95.7217 62.1853 97.7508 63.8463 100.254 63.8463Z" fill="#FD75BE"/>
<path d="M54.6895 60.1364C59.6527 60.1364 63.6763 56.0379 63.6763 50.9821C63.6763 45.9263 59.6527 41.8278 54.6895 41.8278C49.7262 41.8278 45.7026 45.9263 45.7026 50.9821C45.7026 56.0379 49.7262 60.1364 54.6895 60.1364Z" fill="white"/>
<path d="M92.4834 60.1364C97.4467 60.1364 101.47 56.0379 101.47 50.9821C101.47 45.9263 97.4467 41.8278 92.4834 41.8278C87.5201 41.8278 83.4966 45.9263 83.4966 50.9821C83.4966 56.0379 87.5201 60.1364 92.4834 60.1364Z" fill="white"/>
<path d="M54.6893 56.4382C57.6475 56.4382 60.0456 53.9954 60.0456 50.9821C60.0456 47.9688 57.6475 45.526 54.6893 45.526C51.7311 45.526 49.333 47.9688 49.333 50.9821C49.333 53.9954 51.7311 56.4382 54.6893 56.4382Z" fill="#383842"/>
<path d="M92.4832 56.4382C95.4415 56.4382 97.8396 53.9954 97.8396 50.9821C97.8396 47.9688 95.4415 45.526 92.4832 45.526C89.525 45.526 87.127 47.9688 87.127 50.9821C87.127 53.9954 89.525 56.4382 92.4832 56.4382Z" fill="#383842"/>
<path d="M73.586 60.5163C71.9728 60.5163 70.3599 59.8949 69.0437 58.6522C68.3942 58.0387 68.3557 57.0053 68.958 56.3438C69.5603 55.6822 70.5751 55.6437 71.2242 56.2562C72.6366 57.5904 74.535 57.5904 75.9474 56.2562C76.5969 55.6437 77.6113 55.6819 78.2136 56.3438C78.8156 57.005 78.7774 58.0387 78.128 58.6522C76.8121 59.8949 75.1992 60.5163 73.586 60.5163Z" fill="#383842"/>
<path d="M82.9472 77.3865C82.9039 75.4521 82.13 73.6093 80.7868 72.2407C77.8353 69.2342 73.0079 69.2995 70.173 72.4204C63.8511 79.38 59.6526 88.3676 58.6343 98.3053L83.4074 97.8868L82.9472 77.3865Z" fill="#FD75BE"/>
<path d="M102.654 138.034C121.64 138.034 137.03 122.357 137.03 103.018C137.03 83.6784 121.64 68.0009 102.654 68.0009C83.669 68.0009 68.2783 83.6784 68.2783 103.018C68.2783 122.357 83.669 138.034 102.654 138.034Z" fill="url(#paint2_radial)"/>
<path d="M102.654 123.279C113.639 123.279 122.545 114.208 122.545 103.018C122.545 91.8274 113.639 82.756 102.654 82.756C91.6686 82.756 82.7632 91.8274 82.7632 103.018C82.7632 114.208 91.6686 123.279 102.654 123.279Z" fill="url(#paint3_linear)"/>
</g>
<defs>
<linearGradient id="paint0_linear" x1="100.905" y1="131.844" x2="161" y2="131.844" gradientUnits="userSpaceOnUse">
<stop stop-color="#8D68F4"/>
<stop offset="0.515701" stop-color="#8D68F4" stop-opacity="0.791548"/>
<stop offset="0.692708" stop-color="#8D68F4" stop-opacity="0.72"/>
</linearGradient>
<linearGradient id="paint1_linear" x1="75.0645" y1="98.3053" x2="75.0645" y2="1.54952" gradientUnits="userSpaceOnUse">
<stop offset="0.0212" stop-color="#FFB1DB"/>
<stop offset="1" stop-color="#FD86C8"/>
</linearGradient>
<radialGradient id="paint2_radial" cx="0" cy="0" r="1" gradientUnits="userSpaceOnUse" gradientTransform="translate(102.654 103.018) scale(34.3764 35.017)">
<stop offset="0.0217" stop-color="#6A647F"/>
<stop offset="1" stop-color="#4F4C5F"/>
</radialGradient>
<linearGradient id="paint3_linear" x1="82.7635" y1="103.017" x2="122.545" y2="103.017" gradientUnits="userSpaceOnUse">
<stop stop-color="#78C5E6"/>
<stop offset="0.9788" stop-color="#BBE3F4"/>
</linearGradient>
<clipPath id="clip0">
<rect width="161" height="164" fill="white"/>
</clipPath>
</defs>
</svg>
